<?xml version="1.0" encoding="UTF-8" standalone="no"?>
<!DOCTYPE svg PUBLIC "-//W3C//DTD SVG 1.1//EN"
 "http://www.w3.org/Graphics/SVG/1.1/DTD/svg11.dtd">
<!-- Generated by graphviz version 15.0.0 (20260523.1842)
 -->
<!-- Title: fuelTankIO Pages: 1 -->
<svg width="187pt" height="44pt"
 viewBox="0.00 0.00 187.00 44.00" xmlns="http://www.w3.org/2000/svg" xmlns:xlink="http://www.w3.org/1999/xlink">
<g id="graph0" class="graph" transform="scale(1 1) rotate(0) translate(4 40)">
<title>fuelTankIO</title>
<!-- module -->
<g id="node1" class="node">
<title>module</title>
<path fill="#5a9fcd" stroke="#555555" stroke-width="2" d="M43.75,-36C43.75,-36 12,-36 12,-36 6,-36 0,-30 0,-24 0,-24 0,-12 0,-12 0,-6 6,0 12,0 12,0 43.75,0 43.75,0 49.75,0 55.75,-6 55.75,-12 55.75,-12 55.75,-24 55.75,-24 55.75,-30 49.75,-36 43.75,-36"/>
<text xml:space="preserve" text-anchor="middle" x="27.88" y="-13.36" font-family="Helvetica,sans-Serif" font-size="11.20" fill="white">fuelTank</text>
</g>
<!-- msg_0 -->
<g id="node2" class="node">
<title>msg_0</title>
<path fill="white" stroke="#555555" d="M166.5,-36C166.5,-36 103.75,-36 103.75,-36 97.75,-36 91.75,-30 91.75,-24 91.75,-24 91.75,-12 91.75,-12 91.75,-6 97.75,0 103.75,0 103.75,0 166.5,0 166.5,0 172.5,0 178.5,-6 178.5,-12 178.5,-12 178.5,-24 178.5,-24 178.5,-30 172.5,-36 166.5,-36"/>
<text xml:space="preserve" text-anchor="start" x="101.75" y="-21.5" font-family="Helvetica,sans-Serif" font-size="9.00">fuelTankOutMsg</text>
<text xml:space="preserve" text-anchor="start" x="101.75" y="-9.6" font-family="Helvetica,sans-Serif" font-style="italic" font-size="7.00">FuelTankMsgPayload</text>
</g>
<!-- module&#45;&gt;msg_0 -->
<g id="edge1" class="edge">
<title>module&#45;&gt;msg_0</title>
<path fill="none" stroke="#555555" d="M55.98,-18C63.43,-18 71.79,-18 80.19,-18"/>
<polygon fill="#555555" stroke="#555555" points="80.07,-21.5 90.07,-18 80.07,-14.5 80.07,-21.5"/>
</g>
</g>
</svg>
