<?xml version="1.0" encoding="utf-8" standalone="no"?>
<!DOCTYPE svg PUBLIC "-//W3C//DTD SVG 1.1//EN"
  "http://www.w3.org/Graphics/SVG/1.1/DTD/svg11.dtd">
<svg xmlns:xlink="http://www.w3.org/1999/xlink" width="414pt" height="180pt" viewBox="0 0 414 180" xmlns="http://www.w3.org/2000/svg" version="1.1">
 <metadata>
  <rdf:RDF xmlns:dc="http://purl.org/dc/elements/1.1/" xmlns:cc="http://creativecommons.org/ns#" xmlns:rdf="http://www.w3.org/1999/02/22-rdf-syntax-ns#">
   <cc:Work>
    <dc:type rdf:resource="http://purl.org/dc/dcmitype/StillImage"/>
    <dc:date>2026-06-11T04:41:11.753049</dc:date>
    <dc:format>image/svg+xml</dc:format>
    <dc:creator>
     <cc:Agent>
      <dc:title>Matplotlib v3.10.9, https://matplotlib.org/</dc:title>
     </cc:Agent>
    </dc:creator>
   </cc:Work>
  </rdf:RDF>
 </metadata>
 <defs>
  <style type="text/css">*{stroke-linejoin: round; stroke-linecap: butt}</style>
 </defs>
 <g id="figure_1">
  <g id="patch_1">
   <path d="M 0 180 
L 414 180 
L 414 0 
L 0 0 
L 0 180 
z
" style="fill: none"/>
  </g>
  <g id="axes_1">
   <g id="patch_2">
    <path d="M 58.11 139.811563 
L 403.2 139.811563 
L 403.2 10.8 
L 58.11 10.8 
L 58.11 139.811563 
z
" style="fill: none"/>
   </g>
   <g id="matplotlib.axis_1">
    <g id="xtick_1">
     <g id="line2d_1">
      <defs>
       <path id="m2cd2f49033" d="M 0 0 
L 0 3.5 
" style="stroke: #000000; stroke-width: 0.8"/>
      </defs>
      <g>
       <use xlink:href="#m2cd2f49033" x="62.97716" y="139.811563" style="stroke: #000000; stroke-width: 0.8"/>
      </g>
     </g>
     <g id="text_1">
      <!-- 170 -->
      <g transform="translate(54.387785 153.650156) scale(0.09 -0.09)">
       <defs>
        <path id="DejaVuSans-31" d="M 794 531 
L 1825 531 
L 1825 4091 
L 703 3866 
L 703 4441 
L 1819 4666 
L 2450 4666 
L 2450 531 
L 3481 531 
L 3481 0 
L 794 0 
L 794 531 
z
" transform="scale(0.015625)"/>
        <path id="DejaVuSans-37" d="M 525 4666 
L 3525 4666 
L 3525 4397 
L 1831 0 
L 1172 0 
L 2766 4134 
L 525 4134 
L 525 4666 
z
" transform="scale(0.015625)"/>
        <path id="DejaVuSans-30" d="M 2034 4250 
Q 1547 4250 1301 3770 
Q 1056 3291 1056 2328 
Q 1056 1369 1301 889 
Q 1547 409 2034 409 
Q 2525 409 2770 889 
Q 3016 1369 3016 2328 
Q 3016 3291 2770 3770 
Q 2525 4250 2034 4250 
z
M 2034 4750 
Q 2819 4750 3233 4129 
Q 3647 3509 3647 2328 
Q 3647 1150 3233 529 
Q 2819 -91 2034 -91 
Q 1250 -91 836 529 
Q 422 1150 422 2328 
Q 422 3509 836 4129 
Q 1250 4750 2034 4750 
z
" transform="scale(0.015625)"/>
       </defs>
       <use xlink:href="#DejaVuSans-31"/>
       <use xlink:href="#DejaVuSans-37" transform="translate(63.623047 0)"/>
       <use xlink:href="#DejaVuSans-30" transform="translate(127.246094 0)"/>
      </g>
     </g>
    </g>
    <g id="xtick_2">
     <g id="line2d_2">
      <g>
       <use xlink:href="#m2cd2f49033" x="103.544277" y="139.811563" style="stroke: #000000; stroke-width: 0.8"/>
      </g>
     </g>
     <g id="text_2">
      <!-- 180 -->
      <g transform="translate(94.954902 153.650156) scale(0.09 -0.09)">
       <defs>
        <path id="DejaVuSans-38" d="M 2034 2216 
Q 1584 2216 1326 1975 
Q 1069 1734 1069 1313 
Q 1069 891 1326 650 
Q 1584 409 2034 409 
Q 2484 409 2743 651 
Q 3003 894 3003 1313 
Q 3003 1734 2745 1975 
Q 2488 2216 2034 2216 
z
M 1403 2484 
Q 997 2584 770 2862 
Q 544 3141 544 3541 
Q 544 4100 942 4425 
Q 1341 4750 2034 4750 
Q 2731 4750 3128 4425 
Q 3525 4100 3525 3541 
Q 3525 3141 3298 2862 
Q 3072 2584 2669 2484 
Q 3125 2378 3379 2068 
Q 3634 1759 3634 1313 
Q 3634 634 3220 271 
Q 2806 -91 2034 -91 
Q 1263 -91 848 271 
Q 434 634 434 1313 
Q 434 1759 690 2068 
Q 947 2378 1403 2484 
z
M 1172 3481 
Q 1172 3119 1398 2916 
Q 1625 2713 2034 2713 
Q 2441 2713 2670 2916 
Q 2900 3119 2900 3481 
Q 2900 3844 2670 4047 
Q 2441 4250 2034 4250 
Q 1625 4250 1398 4047 
Q 1172 3844 1172 3481 
z
" transform="scale(0.015625)"/>
       </defs>
       <use xlink:href="#DejaVuSans-31"/>
       <use xlink:href="#DejaVuSans-38" transform="translate(63.623047 0)"/>
       <use xlink:href="#DejaVuSans-30" transform="translate(127.246094 0)"/>
      </g>
     </g>
    </g>
    <g id="xtick_3">
     <g id="line2d_3">
      <g>
       <use xlink:href="#m2cd2f49033" x="144.111393" y="139.811563" style="stroke: #000000; stroke-width: 0.8"/>
      </g>
     </g>
     <g id="text_3">
      <!-- 190 -->
      <g transform="translate(135.522018 153.650156) scale(0.09 -0.09)">
       <defs>
        <path id="DejaVuSans-39" d="M 703 97 
L 703 672 
Q 941 559 1184 500 
Q 1428 441 1663 441 
Q 2288 441 2617 861 
Q 2947 1281 2994 2138 
Q 2813 1869 2534 1725 
Q 2256 1581 1919 1581 
Q 1219 1581 811 2004 
Q 403 2428 403 3163 
Q 403 3881 828 4315 
Q 1253 4750 1959 4750 
Q 2769 4750 3195 4129 
Q 3622 3509 3622 2328 
Q 3622 1225 3098 567 
Q 2575 -91 1691 -91 
Q 1453 -91 1209 -44 
Q 966 3 703 97 
z
M 1959 2075 
Q 2384 2075 2632 2365 
Q 2881 2656 2881 3163 
Q 2881 3666 2632 3958 
Q 2384 4250 1959 4250 
Q 1534 4250 1286 3958 
Q 1038 3666 1038 3163 
Q 1038 2656 1286 2365 
Q 1534 2075 1959 2075 
z
" transform="scale(0.015625)"/>
       </defs>
       <use xlink:href="#DejaVuSans-31"/>
       <use xlink:href="#DejaVuSans-39" transform="translate(63.623047 0)"/>
       <use xlink:href="#DejaVuSans-30" transform="translate(127.246094 0)"/>
      </g>
     </g>
    </g>
    <g id="xtick_4">
     <g id="line2d_4">
      <g>
       <use xlink:href="#m2cd2f49033" x="184.678509" y="139.811563" style="stroke: #000000; stroke-width: 0.8"/>
      </g>
     </g>
     <g id="text_4">
      <!-- 200 -->
      <g transform="translate(176.089134 153.650156) scale(0.09 -0.09)">
       <defs>
        <path id="DejaVuSans-32" d="M 1228 531 
L 3431 531 
L 3431 0 
L 469 0 
L 469 531 
Q 828 903 1448 1529 
Q 2069 2156 2228 2338 
Q 2531 2678 2651 2914 
Q 2772 3150 2772 3378 
Q 2772 3750 2511 3984 
Q 2250 4219 1831 4219 
Q 1534 4219 1204 4116 
Q 875 4013 500 3803 
L 500 4441 
Q 881 4594 1212 4672 
Q 1544 4750 1819 4750 
Q 2544 4750 2975 4387 
Q 3406 4025 3406 3419 
Q 3406 3131 3298 2873 
Q 3191 2616 2906 2266 
Q 2828 2175 2409 1742 
Q 1991 1309 1228 531 
z
" transform="scale(0.015625)"/>
       </defs>
       <use xlink:href="#DejaVuSans-32"/>
       <use xlink:href="#DejaVuSans-30" transform="translate(63.623047 0)"/>
       <use xlink:href="#DejaVuSans-30" transform="translate(127.246094 0)"/>
      </g>
     </g>
    </g>
    <g id="xtick_5">
     <g id="line2d_5">
      <g>
       <use xlink:href="#m2cd2f49033" x="225.245626" y="139.811563" style="stroke: #000000; stroke-width: 0.8"/>
      </g>
     </g>
     <g id="text_5">
      <!-- 210 -->
      <g transform="translate(216.656251 153.650156) scale(0.09 -0.09)">
       <use xlink:href="#DejaVuSans-32"/>
       <use xlink:href="#DejaVuSans-31" transform="translate(63.623047 0)"/>
       <use xlink:href="#DejaVuSans-30" transform="translate(127.246094 0)"/>
      </g>
     </g>
    </g>
    <g id="xtick_6">
     <g id="line2d_6">
      <g>
       <use xlink:href="#m2cd2f49033" x="265.812742" y="139.811563" style="stroke: #000000; stroke-width: 0.8"/>
      </g>
     </g>
     <g id="text_6">
      <!-- 220 -->
      <g transform="translate(257.223367 153.650156) scale(0.09 -0.09)">
       <use xlink:href="#DejaVuSans-32"/>
       <use xlink:href="#DejaVuSans-32" transform="translate(63.623047 0)"/>
       <use xlink:href="#DejaVuSans-30" transform="translate(127.246094 0)"/>
      </g>
     </g>
    </g>
    <g id="xtick_7">
     <g id="line2d_7">
      <g>
       <use xlink:href="#m2cd2f49033" x="306.379858" y="139.811563" style="stroke: #000000; stroke-width: 0.8"/>
      </g>
     </g>
     <g id="text_7">
      <!-- 230 -->
      <g transform="translate(297.790483 153.650156) scale(0.09 -0.09)">
       <defs>
        <path id="DejaVuSans-33" d="M 2597 2516 
Q 3050 2419 3304 2112 
Q 3559 1806 3559 1356 
Q 3559 666 3084 287 
Q 2609 -91 1734 -91 
Q 1441 -91 1130 -33 
Q 819 25 488 141 
L 488 750 
Q 750 597 1062 519 
Q 1375 441 1716 441 
Q 2309 441 2620 675 
Q 2931 909 2931 1356 
Q 2931 1769 2642 2001 
Q 2353 2234 1838 2234 
L 1294 2234 
L 1294 2753 
L 1863 2753 
Q 2328 2753 2575 2939 
Q 2822 3125 2822 3475 
Q 2822 3834 2567 4026 
Q 2313 4219 1838 4219 
Q 1578 4219 1281 4162 
Q 984 4106 628 3988 
L 628 4550 
Q 988 4650 1302 4700 
Q 1616 4750 1894 4750 
Q 2613 4750 3031 4423 
Q 3450 4097 3450 3541 
Q 3450 3153 3228 2886 
Q 3006 2619 2597 2516 
z
" transform="scale(0.015625)"/>
       </defs>
       <use xlink:href="#DejaVuSans-32"/>
       <use xlink:href="#DejaVuSans-33" transform="translate(63.623047 0)"/>
       <use xlink:href="#DejaVuSans-30" transform="translate(127.246094 0)"/>
      </g>
     </g>
    </g>
    <g id="xtick_8">
     <g id="line2d_8">
      <g>
       <use xlink:href="#m2cd2f49033" x="346.946975" y="139.811563" style="stroke: #000000; stroke-width: 0.8"/>
      </g>
     </g>
     <g id="text_8">
      <!-- 240 -->
      <g transform="translate(338.3576 153.650156) scale(0.09 -0.09)">
       <defs>
        <path id="DejaVuSans-34" d="M 2419 4116 
L 825 1625 
L 2419 1625 
L 2419 4116 
z
M 2253 4666 
L 3047 4666 
L 3047 1625 
L 3713 1625 
L 3713 1100 
L 3047 1100 
L 3047 0 
L 2419 0 
L 2419 1100 
L 313 1100 
L 313 1709 
L 2253 4666 
z
" transform="scale(0.015625)"/>
       </defs>
       <use xlink:href="#DejaVuSans-32"/>
       <use xlink:href="#DejaVuSans-34" transform="translate(63.623047 0)"/>
       <use xlink:href="#DejaVuSans-30" transform="translate(127.246094 0)"/>
      </g>
     </g>
    </g>
    <g id="xtick_9">
     <g id="line2d_9">
      <g>
       <use xlink:href="#m2cd2f49033" x="387.514091" y="139.811563" style="stroke: #000000; stroke-width: 0.8"/>
      </g>
     </g>
     <g id="text_9">
      <!-- 250 -->
      <g transform="translate(378.924716 153.650156) scale(0.09 -0.09)">
       <defs>
        <path id="DejaVuSans-35" d="M 691 4666 
L 3169 4666 
L 3169 4134 
L 1269 4134 
L 1269 2991 
Q 1406 3038 1543 3061 
Q 1681 3084 1819 3084 
Q 2600 3084 3056 2656 
Q 3513 2228 3513 1497 
Q 3513 744 3044 326 
Q 2575 -91 1722 -91 
Q 1428 -91 1123 -41 
Q 819 9 494 109 
L 494 744 
Q 775 591 1075 516 
Q 1375 441 1709 441 
Q 2250 441 2565 725 
Q 2881 1009 2881 1497 
Q 2881 1984 2565 2268 
Q 2250 2553 1709 2553 
Q 1456 2553 1204 2497 
Q 953 2441 691 2322 
L 691 4666 
z
" transform="scale(0.015625)"/>
       </defs>
       <use xlink:href="#DejaVuSans-32"/>
       <use xlink:href="#DejaVuSans-35" transform="translate(63.623047 0)"/>
       <use xlink:href="#DejaVuSans-30" transform="translate(127.246094 0)"/>
      </g>
     </g>
    </g>
    <g id="text_10">
     <!-- Altitude [km] -->
     <g transform="translate(197.860469 167.120313) scale(0.1 -0.1)">
      <defs>
       <path id="DejaVuSans-41" d="M 2188 4044 
L 1331 1722 
L 3047 1722 
L 2188 4044 
z
M 1831 4666 
L 2547 4666 
L 4325 0 
L 3669 0 
L 3244 1197 
L 1141 1197 
L 716 0 
L 50 0 
L 1831 4666 
z
" transform="scale(0.015625)"/>
       <path id="DejaVuSans-6c" d="M 603 4863 
L 1178 4863 
L 1178 0 
L 603 0 
L 603 4863 
z
" transform="scale(0.015625)"/>
       <path id="DejaVuSans-74" d="M 1172 4494 
L 1172 3500 
L 2356 3500 
L 2356 3053 
L 1172 3053 
L 1172 1153 
Q 1172 725 1289 603 
Q 1406 481 1766 481 
L 2356 481 
L 2356 0 
L 1766 0 
Q 1100 0 847 248 
Q 594 497 594 1153 
L 594 3053 
L 172 3053 
L 172 3500 
L 594 3500 
L 594 4494 
L 1172 4494 
z
" transform="scale(0.015625)"/>
       <path id="DejaVuSans-69" d="M 603 3500 
L 1178 3500 
L 1178 0 
L 603 0 
L 603 3500 
z
M 603 4863 
L 1178 4863 
L 1178 4134 
L 603 4134 
L 603 4863 
z
" transform="scale(0.015625)"/>
       <path id="DejaVuSans-75" d="M 544 1381 
L 544 3500 
L 1119 3500 
L 1119 1403 
Q 1119 906 1312 657 
Q 1506 409 1894 409 
Q 2359 409 2629 706 
Q 2900 1003 2900 1516 
L 2900 3500 
L 3475 3500 
L 3475 0 
L 2900 0 
L 2900 538 
Q 2691 219 2414 64 
Q 2138 -91 1772 -91 
Q 1169 -91 856 284 
Q 544 659 544 1381 
z
M 1991 3584 
L 1991 3584 
z
" transform="scale(0.015625)"/>
       <path id="DejaVuSans-64" d="M 2906 2969 
L 2906 4863 
L 3481 4863 
L 3481 0 
L 2906 0 
L 2906 525 
Q 2725 213 2448 61 
Q 2172 -91 1784 -91 
Q 1150 -91 751 415 
Q 353 922 353 1747 
Q 353 2572 751 3078 
Q 1150 3584 1784 3584 
Q 2172 3584 2448 3432 
Q 2725 3281 2906 2969 
z
M 947 1747 
Q 947 1113 1208 752 
Q 1469 391 1925 391 
Q 2381 391 2643 752 
Q 2906 1113 2906 1747 
Q 2906 2381 2643 2742 
Q 2381 3103 1925 3103 
Q 1469 3103 1208 2742 
Q 947 2381 947 1747 
z
" transform="scale(0.015625)"/>
       <path id="DejaVuSans-65" d="M 3597 1894 
L 3597 1613 
L 953 1613 
Q 991 1019 1311 708 
Q 1631 397 2203 397 
Q 2534 397 2845 478 
Q 3156 559 3463 722 
L 3463 178 
Q 3153 47 2828 -22 
Q 2503 -91 2169 -91 
Q 1331 -91 842 396 
Q 353 884 353 1716 
Q 353 2575 817 3079 
Q 1281 3584 2069 3584 
Q 2775 3584 3186 3129 
Q 3597 2675 3597 1894 
z
M 3022 2063 
Q 3016 2534 2758 2815 
Q 2500 3097 2075 3097 
Q 1594 3097 1305 2825 
Q 1016 2553 972 2059 
L 3022 2063 
z
" transform="scale(0.015625)"/>
       <path id="DejaVuSans-20" transform="scale(0.015625)"/>
       <path id="DejaVuSans-5b" d="M 550 4863 
L 1875 4863 
L 1875 4416 
L 1125 4416 
L 1125 -397 
L 1875 -397 
L 1875 -844 
L 550 -844 
L 550 4863 
z
" transform="scale(0.015625)"/>
       <path id="DejaVuSans-6b" d="M 581 4863 
L 1159 4863 
L 1159 1991 
L 2875 3500 
L 3609 3500 
L 1753 1863 
L 3688 0 
L 2938 0 
L 1159 1709 
L 1159 0 
L 581 0 
L 581 4863 
z
" transform="scale(0.015625)"/>
       <path id="DejaVuSans-6d" d="M 3328 2828 
Q 3544 3216 3844 3400 
Q 4144 3584 4550 3584 
Q 5097 3584 5394 3201 
Q 5691 2819 5691 2113 
L 5691 0 
L 5113 0 
L 5113 2094 
Q 5113 2597 4934 2840 
Q 4756 3084 4391 3084 
Q 3944 3084 3684 2787 
Q 3425 2491 3425 1978 
L 3425 0 
L 2847 0 
L 2847 2094 
Q 2847 2600 2669 2842 
Q 2491 3084 2119 3084 
Q 1678 3084 1418 2786 
Q 1159 2488 1159 1978 
L 1159 0 
L 581 0 
L 581 3500 
L 1159 3500 
L 1159 2956 
Q 1356 3278 1631 3431 
Q 1906 3584 2284 3584 
Q 2666 3584 2933 3390 
Q 3200 3197 3328 2828 
z
" transform="scale(0.015625)"/>
       <path id="DejaVuSans-5d" d="M 1947 4863 
L 1947 -844 
L 622 -844 
L 622 -397 
L 1369 -397 
L 1369 4416 
L 622 4416 
L 622 4863 
L 1947 4863 
z
" transform="scale(0.015625)"/>
      </defs>
      <use xlink:href="#DejaVuSans-41"/>
      <use xlink:href="#DejaVuSans-6c" transform="translate(68.408203 0)"/>
      <use xlink:href="#DejaVuSans-74" transform="translate(96.191406 0)"/>
      <use xlink:href="#DejaVuSans-69" transform="translate(135.400391 0)"/>
      <use xlink:href="#DejaVuSans-74" transform="translate(163.183594 0)"/>
      <use xlink:href="#DejaVuSans-75" transform="translate(202.392578 0)"/>
      <use xlink:href="#DejaVuSans-64" transform="translate(265.771484 0)"/>
      <use xlink:href="#DejaVuSans-65" transform="translate(329.248047 0)"/>
      <use xlink:href="#DejaVuSans-20" transform="translate(390.771484 0)"/>
      <use xlink:href="#DejaVuSans-5b" transform="translate(422.558594 0)"/>
      <use xlink:href="#DejaVuSans-6b" transform="translate(461.572266 0)"/>
      <use xlink:href="#DejaVuSans-6d" transform="translate(519.482422 0)"/>
      <use xlink:href="#DejaVuSans-5d" transform="translate(616.894531 0)"/>
     </g>
    </g>
   </g>
   <g id="matplotlib.axis_2">
    <g id="ytick_1">
     <g id="line2d_10">
      <defs>
       <path id="m86269db5d7" d="M 0 0 
L -3.5 0 
" style="stroke: #000000; stroke-width: 0.8"/>
      </defs>
      <g>
       <use xlink:href="#m86269db5d7" x="58.11" y="137.210302" style="stroke: #000000; stroke-width: 0.8"/>
      </g>
     </g>
     <g id="text_11">
      <!-- $\mathdefault{10^{-13}}$ -->
      <g transform="translate(26 140.629599) scale(0.09 -0.09)">
       <defs>
        <path id="DejaVuSans-2212" d="M 678 2272 
L 4684 2272 
L 4684 1741 
L 678 1741 
L 678 2272 
z
" transform="scale(0.015625)"/>
       </defs>
       <use xlink:href="#DejaVuSans-31" transform="translate(0 0.765625)"/>
       <use xlink:href="#DejaVuSans-30" transform="translate(63.623047 0.765625)"/>
       <use xlink:href="#DejaVuSans-2212" transform="translate(128.203125 39.046875) scale(0.7)"/>
       <use xlink:href="#DejaVuSans-31" transform="translate(186.855469 39.046875) scale(0.7)"/>
       <use xlink:href="#DejaVuSans-33" transform="translate(231.391602 39.046875) scale(0.7)"/>
      </g>
     </g>
    </g>
    <g id="ytick_2">
     <g id="line2d_11">
      <g>
       <use xlink:href="#m86269db5d7" x="58.11" y="108.933935" style="stroke: #000000; stroke-width: 0.8"/>
      </g>
     </g>
     <g id="text_12">
      <!-- $\mathdefault{10^{-12}}$ -->
      <g transform="translate(26 112.353232) scale(0.09 -0.09)">
       <use xlink:href="#DejaVuSans-31" transform="translate(0 0.765625)"/>
       <use xlink:href="#DejaVuSans-30" transform="translate(63.623047 0.765625)"/>
       <use xlink:href="#DejaVuSans-2212" transform="translate(128.203125 39.046875) scale(0.7)"/>
       <use xlink:href="#DejaVuSans-31" transform="translate(186.855469 39.046875) scale(0.7)"/>
       <use xlink:href="#DejaVuSans-32" transform="translate(231.391602 39.046875) scale(0.7)"/>
      </g>
     </g>
    </g>
    <g id="ytick_3">
     <g id="line2d_12">
      <g>
       <use xlink:href="#m86269db5d7" x="58.11" y="80.657568" style="stroke: #000000; stroke-width: 0.8"/>
      </g>
     </g>
     <g id="text_13">
      <!-- $\mathdefault{10^{-11}}$ -->
      <g transform="translate(26 84.076864) scale(0.09 -0.09)">
       <use xlink:href="#DejaVuSans-31" transform="translate(0 0.684375)"/>
       <use xlink:href="#DejaVuSans-30" transform="translate(63.623047 0.684375)"/>
       <use xlink:href="#DejaVuSans-2212" transform="translate(128.203125 38.965625) scale(0.7)"/>
       <use xlink:href="#DejaVuSans-31" transform="translate(186.855469 38.965625) scale(0.7)"/>
       <use xlink:href="#DejaVuSans-31" transform="translate(231.391602 38.965625) scale(0.7)"/>
      </g>
     </g>
    </g>
    <g id="ytick_4">
     <g id="line2d_13">
      <g>
       <use xlink:href="#m86269db5d7" x="58.11" y="52.3812" style="stroke: #000000; stroke-width: 0.8"/>
      </g>
     </g>
     <g id="text_14">
      <!-- $\mathdefault{10^{-10}}$ -->
      <g transform="translate(26 55.800497) scale(0.09 -0.09)">
       <use xlink:href="#DejaVuSans-31" transform="translate(0 0.765625)"/>
       <use xlink:href="#DejaVuSans-30" transform="translate(63.623047 0.765625)"/>
       <use xlink:href="#DejaVuSans-2212" transform="translate(128.203125 39.046875) scale(0.7)"/>
       <use xlink:href="#DejaVuSans-31" transform="translate(186.855469 39.046875) scale(0.7)"/>
       <use xlink:href="#DejaVuSans-30" transform="translate(231.391602 39.046875) scale(0.7)"/>
      </g>
     </g>
    </g>
    <g id="ytick_5">
     <g id="line2d_14">
      <g>
       <use xlink:href="#m86269db5d7" x="58.11" y="24.104833" style="stroke: #000000; stroke-width: 0.8"/>
      </g>
     </g>
     <g id="text_15">
      <!-- $\mathdefault{10^{-9}}$ -->
      <g transform="translate(29.96 27.52413) scale(0.09 -0.09)">
       <use xlink:href="#DejaVuSans-31" transform="translate(0 0.765625)"/>
       <use xlink:href="#DejaVuSans-30" transform="translate(63.623047 0.765625)"/>
       <use xlink:href="#DejaVuSans-2212" transform="translate(128.203125 39.046875) scale(0.7)"/>
       <use xlink:href="#DejaVuSans-39" transform="translate(186.855469 39.046875) scale(0.7)"/>
      </g>
     </g>
    </g>
    <g id="ytick_6">
     <g id="line2d_15">
      <defs>
       <path id="me7badeaff9" d="M 0 0 
L -2 0 
" style="stroke: #000000; stroke-width: 0.6"/>
      </defs>
      <g>
       <use xlink:href="#me7badeaff9" x="58.11" y="138.504158" style="stroke: #000000; stroke-width: 0.6"/>
      </g>
     </g>
    </g>
    <g id="ytick_7">
     <g id="line2d_16">
      <g>
       <use xlink:href="#me7badeaff9" x="58.11" y="128.698268" style="stroke: #000000; stroke-width: 0.6"/>
      </g>
     </g>
    </g>
    <g id="ytick_8">
     <g id="line2d_17">
      <g>
       <use xlink:href="#me7badeaff9" x="58.11" y="123.719046" style="stroke: #000000; stroke-width: 0.6"/>
      </g>
     </g>
    </g>
    <g id="ytick_9">
     <g id="line2d_18">
      <g>
       <use xlink:href="#me7badeaff9" x="58.11" y="120.186233" style="stroke: #000000; stroke-width: 0.6"/>
      </g>
     </g>
    </g>
    <g id="ytick_10">
     <g id="line2d_19">
      <g>
       <use xlink:href="#me7badeaff9" x="58.11" y="117.44597" style="stroke: #000000; stroke-width: 0.6"/>
      </g>
     </g>
    </g>
    <g id="ytick_11">
     <g id="line2d_20">
      <g>
       <use xlink:href="#me7badeaff9" x="58.11" y="115.207012" style="stroke: #000000; stroke-width: 0.6"/>
      </g>
     </g>
    </g>
    <g id="ytick_12">
     <g id="line2d_21">
      <g>
       <use xlink:href="#me7badeaff9" x="58.11" y="113.314" style="stroke: #000000; stroke-width: 0.6"/>
      </g>
     </g>
    </g>
    <g id="ytick_13">
     <g id="line2d_22">
      <g>
       <use xlink:href="#me7badeaff9" x="58.11" y="111.674198" style="stroke: #000000; stroke-width: 0.6"/>
      </g>
     </g>
    </g>
    <g id="ytick_14">
     <g id="line2d_23">
      <g>
       <use xlink:href="#me7badeaff9" x="58.11" y="110.227791" style="stroke: #000000; stroke-width: 0.6"/>
      </g>
     </g>
    </g>
    <g id="ytick_15">
     <g id="line2d_24">
      <g>
       <use xlink:href="#me7badeaff9" x="58.11" y="100.4219" style="stroke: #000000; stroke-width: 0.6"/>
      </g>
     </g>
    </g>
    <g id="ytick_16">
     <g id="line2d_25">
      <g>
       <use xlink:href="#me7badeaff9" x="58.11" y="95.442679" style="stroke: #000000; stroke-width: 0.6"/>
      </g>
     </g>
    </g>
    <g id="ytick_17">
     <g id="line2d_26">
      <g>
       <use xlink:href="#me7badeaff9" x="58.11" y="91.909865" style="stroke: #000000; stroke-width: 0.6"/>
      </g>
     </g>
    </g>
    <g id="ytick_18">
     <g id="line2d_27">
      <g>
       <use xlink:href="#me7badeaff9" x="58.11" y="89.169602" style="stroke: #000000; stroke-width: 0.6"/>
      </g>
     </g>
    </g>
    <g id="ytick_19">
     <g id="line2d_28">
      <g>
       <use xlink:href="#me7badeaff9" x="58.11" y="86.930644" style="stroke: #000000; stroke-width: 0.6"/>
      </g>
     </g>
    </g>
    <g id="ytick_20">
     <g id="line2d_29">
      <g>
       <use xlink:href="#me7badeaff9" x="58.11" y="85.037632" style="stroke: #000000; stroke-width: 0.6"/>
      </g>
     </g>
    </g>
    <g id="ytick_21">
     <g id="line2d_30">
      <g>
       <use xlink:href="#me7badeaff9" x="58.11" y="83.397831" style="stroke: #000000; stroke-width: 0.6"/>
      </g>
     </g>
    </g>
    <g id="ytick_22">
     <g id="line2d_31">
      <g>
       <use xlink:href="#me7badeaff9" x="58.11" y="81.951423" style="stroke: #000000; stroke-width: 0.6"/>
      </g>
     </g>
    </g>
    <g id="ytick_23">
     <g id="line2d_32">
      <g>
       <use xlink:href="#me7badeaff9" x="58.11" y="72.145533" style="stroke: #000000; stroke-width: 0.6"/>
      </g>
     </g>
    </g>
    <g id="ytick_24">
     <g id="line2d_33">
      <g>
       <use xlink:href="#me7badeaff9" x="58.11" y="67.166312" style="stroke: #000000; stroke-width: 0.6"/>
      </g>
     </g>
    </g>
    <g id="ytick_25">
     <g id="line2d_34">
      <g>
       <use xlink:href="#me7badeaff9" x="58.11" y="63.633498" style="stroke: #000000; stroke-width: 0.6"/>
      </g>
     </g>
    </g>
    <g id="ytick_26">
     <g id="line2d_35">
      <g>
       <use xlink:href="#me7badeaff9" x="58.11" y="60.893235" style="stroke: #000000; stroke-width: 0.6"/>
      </g>
     </g>
    </g>
    <g id="ytick_27">
     <g id="line2d_36">
      <g>
       <use xlink:href="#me7badeaff9" x="58.11" y="58.654277" style="stroke: #000000; stroke-width: 0.6"/>
      </g>
     </g>
    </g>
    <g id="ytick_28">
     <g id="line2d_37">
      <g>
       <use xlink:href="#me7badeaff9" x="58.11" y="56.761265" style="stroke: #000000; stroke-width: 0.6"/>
      </g>
     </g>
    </g>
    <g id="ytick_29">
     <g id="line2d_38">
      <g>
       <use xlink:href="#me7badeaff9" x="58.11" y="55.121463" style="stroke: #000000; stroke-width: 0.6"/>
      </g>
     </g>
    </g>
    <g id="ytick_30">
     <g id="line2d_39">
      <g>
       <use xlink:href="#me7badeaff9" x="58.11" y="53.675056" style="stroke: #000000; stroke-width: 0.6"/>
      </g>
     </g>
    </g>
    <g id="ytick_31">
     <g id="line2d_40">
      <g>
       <use xlink:href="#me7badeaff9" x="58.11" y="43.869165" style="stroke: #000000; stroke-width: 0.6"/>
      </g>
     </g>
    </g>
    <g id="ytick_32">
     <g id="line2d_41">
      <g>
       <use xlink:href="#me7badeaff9" x="58.11" y="38.889944" style="stroke: #000000; stroke-width: 0.6"/>
      </g>
     </g>
    </g>
    <g id="ytick_33">
     <g id="line2d_42">
      <g>
       <use xlink:href="#me7badeaff9" x="58.11" y="35.357131" style="stroke: #000000; stroke-width: 0.6"/>
      </g>
     </g>
    </g>
    <g id="ytick_34">
     <g id="line2d_43">
      <g>
       <use xlink:href="#me7badeaff9" x="58.11" y="32.616867" style="stroke: #000000; stroke-width: 0.6"/>
      </g>
     </g>
    </g>
    <g id="ytick_35">
     <g id="line2d_44">
      <g>
       <use xlink:href="#me7badeaff9" x="58.11" y="30.377909" style="stroke: #000000; stroke-width: 0.6"/>
      </g>
     </g>
    </g>
    <g id="ytick_36">
     <g id="line2d_45">
      <g>
       <use xlink:href="#me7badeaff9" x="58.11" y="28.484897" style="stroke: #000000; stroke-width: 0.6"/>
      </g>
     </g>
    </g>
    <g id="ytick_37">
     <g id="line2d_46">
      <g>
       <use xlink:href="#me7badeaff9" x="58.11" y="26.845096" style="stroke: #000000; stroke-width: 0.6"/>
      </g>
     </g>
    </g>
    <g id="ytick_38">
     <g id="line2d_47">
      <g>
       <use xlink:href="#me7badeaff9" x="58.11" y="25.398688" style="stroke: #000000; stroke-width: 0.6"/>
      </g>
     </g>
    </g>
    <g id="ytick_39">
     <g id="line2d_48">
      <g>
       <use xlink:href="#me7badeaff9" x="58.11" y="15.592798" style="stroke: #000000; stroke-width: 0.6"/>
      </g>
     </g>
    </g>
    <g id="text_16">
     <!-- $\rho$ [kg/m$^3$] -->
     <g transform="translate(19.9 99.055781) rotate(-90) scale(0.1 -0.1)">
      <defs>
       <path id="DejaVuSans-Oblique-3c1" d="M 1203 2875 
Q 1453 3194 1981 3475 
Q 2188 3584 2756 3584 
Q 3394 3584 3694 3078 
Q 3994 2572 3834 1747 
Q 3672 922 3175 415 
Q 2678 -91 2041 -91 
Q 1656 -91 1409 63 
Q 1163 213 1044 525 
L 681 -1331 
L 103 -1331 
L 697 1716 
Q 838 2438 1203 2875 
z
M 3238 1747 
Q 3359 2381 3169 2744 
Q 2978 3103 2522 3103 
Q 2066 3103 1734 2744 
Q 1403 2381 1281 1747 
Q 1156 1113 1347 750 
Q 1538 391 1994 391 
Q 2450 391 2781 750 
Q 3113 1113 3238 1747 
z
" transform="scale(0.015625)"/>
       <path id="DejaVuSans-67" d="M 2906 1791 
Q 2906 2416 2648 2759 
Q 2391 3103 1925 3103 
Q 1463 3103 1205 2759 
Q 947 2416 947 1791 
Q 947 1169 1205 825 
Q 1463 481 1925 481 
Q 2391 481 2648 825 
Q 2906 1169 2906 1791 
z
M 3481 434 
Q 3481 -459 3084 -895 
Q 2688 -1331 1869 -1331 
Q 1566 -1331 1297 -1286 
Q 1028 -1241 775 -1147 
L 775 -588 
Q 1028 -725 1275 -790 
Q 1522 -856 1778 -856 
Q 2344 -856 2625 -561 
Q 2906 -266 2906 331 
L 2906 616 
Q 2728 306 2450 153 
Q 2172 0 1784 0 
Q 1141 0 747 490 
Q 353 981 353 1791 
Q 353 2603 747 3093 
Q 1141 3584 1784 3584 
Q 2172 3584 2450 3431 
Q 2728 3278 2906 2969 
L 2906 3500 
L 3481 3500 
L 3481 434 
z
" transform="scale(0.015625)"/>
       <path id="DejaVuSans-2f" d="M 1625 4666 
L 2156 4666 
L 531 -594 
L 0 -594 
L 1625 4666 
z
" transform="scale(0.015625)"/>
      </defs>
      <use xlink:href="#DejaVuSans-Oblique-3c1" transform="translate(0 0.765625)"/>
      <use xlink:href="#DejaVuSans-20" transform="translate(63.476562 0.765625)"/>
      <use xlink:href="#DejaVuSans-5b" transform="translate(95.263672 0.765625)"/>
      <use xlink:href="#DejaVuSans-6b" transform="translate(134.277344 0.765625)"/>
      <use xlink:href="#DejaVuSans-67" transform="translate(192.1875 0.765625)"/>
      <use xlink:href="#DejaVuSans-2f" transform="translate(255.664062 0.765625)"/>
      <use xlink:href="#DejaVuSans-6d" transform="translate(289.355469 0.765625)"/>
      <use xlink:href="#DejaVuSans-33" transform="translate(387.724609 39.046875) scale(0.7)"/>
      <use xlink:href="#DejaVuSans-5d" transform="translate(434.995117 0.765625)"/>
     </g>
    </g>
   </g>
   <g id="line2d_49">
    <path d="M 387.514091 181 
L 387.505422 126.13182 
L 387.405392 126.814765 
L 387.343777 124.237122 
L 387.294274 125.480912 
L 387.144933 132.066023 
L 387.028012 127.505621 
L 387.008372 128.79934 
L 386.998388 131.042753 
L 386.914592 127.974899 
L 386.903631 128.758865 
L 386.892561 128.739003 
L 386.858712 131.345462 
L 386.763821 129.778326 
L 386.739067 126.41039 
L 386.649245 128.809088 
L 386.636014 129.270243 
L 386.582113 127.778363 
L 386.568396 126.600067 
L 386.526674 129.109451 
L 386.484107 128.466887 
L 386.469733 128.458658 
L 386.411336 130.944506 
L 386.351534 130.079997 
L 386.274894 128.536288 
L 386.243673 129.326975 
L 386.148164 125.772212 
L 386.099407 125.471058 
L 385.98317 128.128438 
L 385.949353 128.13756 
L 385.846404 131.944853 
L 385.81162 131.214916 
L 385.794146 129.9273 
L 385.741413 131.797224 
L 385.706012 131.090836 
L 385.471863 126.159748 
L 385.380291 126.530282 
L 385.325033 127.437962 
L 385.306567 125.609947 
L 385.28808 125.737591 
L 385.232501 126.780832 
L 385.213938 125.083776 
L 385.176764 127.139889 
L 385.120898 125.551576 
L 385.083595 125.794996 
L 384.915426 133.947401 
L 384.747584 127.503463 
L 384.729005 127.45345 
L 384.691905 129.46294 
L 384.599554 128.785039 
L 384.562801 128.592836 
L 384.507902 131.147955 
L 384.453314 128.842636 
L 384.39907 127.577159 
L 384.417111 129.152241 
L 384.345205 128.48668 
L 384.25636 130.051835 
L 384.238741 129.812015 
L 384.134179 127.118025 
L 384.099788 129.130934 
L 384.048663 126.797881 
L 384.014898 128.059363 
L 383.981398 127.343096 
L 383.898848 126.495666 
L 383.915218 127.857482 
L 383.866327 126.521414 
L 383.8341 128.544936 
L 383.754868 127.279397 
L 383.739257 127.218399 
L 383.632273 130.306037 
L 383.587697 130.100088 
L 383.558421 128.107676 
L 383.529506 130.240781 
L 383.486823 128.532154 
L 383.417578 131.16518 
L 383.390561 127.593437 
L 383.377201 128.959218 
L 383.363941 128.800804 
L 383.350781 130.191239 
L 383.311907 127.350484 
L 383.273952 127.963548 
L 383.212762 126.866963 
L 383.189016 129.434489 
L 383.098288 131.788994 
L 383.120326 128.054963 
L 383.066047 130.504802 
L 382.910907 127.317412 
L 382.884997 128.1863 
L 382.868282 130.173126 
L 382.791378 126.887722 
L 382.784293 126.904983 
L 382.763688 126.947227 
L 382.635757 121.972215 
L 382.559717 129.022973 
L 382.517922 124.47236 
L 382.515493 123.596872 
L 382.435573 132.453396 
L 382.419902 126.824778 
L 382.407403 129.645378 
L 382.371729 124.719488 
L 382.312349 127.534737 
L 382.272303 124.055122 
L 382.22478 129.081754 
L 382.208928 127.613562 
L 382.137715 125.983999 
L 382.09723 130.601034 
L 381.997943 126.455668 
L 382.038009 132.64125 
L 381.981257 127.570238 
L 381.972772 128.315038 
L 381.946746 124.954861 
L 381.901437 126.07195 
L 381.892082 125.378592 
L 381.823823 127.935658 
L 381.793081 129.60066 
L 381.728935 126.900795 
L 381.717901 125.639197 
L 381.637916 127.413099 
L 381.565567 131.31761 
L 381.528113 127.631801 
L 381.410775 124.37721 
L 381.463836 129.388155 
L 381.383704 124.60167 
L 381.28614 127.071652 
L 381.271849 127.022329 
L 381.199089 123.87959 
L 381.154399 125.402265 
L 381.124179 126.021758 
L 381.108943 125.990268 
L 381.031521 125.863675 
L 380.999983 128.009453 
L 380.903493 125.459841 
L 380.870722 126.262834 
L 380.854226 127.619372 
L 380.804303 124.193098 
L 380.719683 122.201424 
L 380.685346 122.699865 
L 380.650733 123.128659 
L 380.615848 122.250882 
L 380.598304 121.968521 
L 380.563014 123.106533 
L 380.527458 122.942999 
L 380.491638 125.44086 
L 380.473632 126.229218 
L 380.437431 123.984788 
L 380.400983 124.641363 
L 380.382667 124.706215 
L 380.271556 127.060616 
L 380.252843 126.977309 
L 380.234077 126.063646 
L 380.19639 128.068667 
L 380.177472 126.977863 
L 380.158506 129.277157 
L 380.082187 128.205507 
L 380.0052 125.642409 
L 379.966479 126.38604 
L 379.947065 127.749904 
L 379.888625 125.280103 
L 379.84951 124.211337 
L 379.829909 126.274634 
L 379.790625 125.420722 
L 379.770945 125.399116 
L 379.691991 125.324544 
L 379.61272 127.308623 
L 379.513298 123.938131 
L 379.473454 125.290535 
L 379.453519 126.072321 
L 379.41363 124.793744 
L 379.313836 121.967242 
L 379.273903 122.075215 
L 379.253935 121.758847 
L 379.214 122.24473 
L 379.154111 124.861021 
L 379.094259 123.618302 
L 379.07432 123.789377 
L 379.01455 120.87883 
L 378.954859 122.338969 
L 378.934981 121.636673 
L 378.895258 123.239646 
L 378.875414 122.77198 
L 378.776403 125.014976 
L 378.75665 124.310642 
L 378.736914 124.353616 
L 378.638547 125.282426 
L 378.521314 123.739544 
L 378.501873 123.82315 
L 378.3859 129.833606 
L 378.328404 128.628621 
L 378.214565 125.427443 
L 378.102455 129.99179 
L 378.083956 127.828791 
L 377.95608 124.893622 
L 377.938055 125.672011 
L 377.920092 124.831086 
L 377.84889 125.534566 
L 377.831255 123.540239 
L 377.744102 123.876494 
L 377.709728 123.554458 
L 377.59169 126.440013 
L 377.44536 123.222377 
L 377.429492 123.318027 
L 377.397994 124.219465 
L 377.382365 122.475807 
L 377.320649 123.724517 
L 377.230495 122.459562 
L 377.245318 124.213011 
L 377.201092 122.747831 
L 377.172016 124.797993 
L 377.100754 122.241012 
L 377.086747 121.407171 
L 377.031528 123.810274 
L 377.017926 125.148584 
L 376.92498 124.208339 
L 376.886358 122.709067 
L 376.823584 123.22499 
L 376.71554 124.4912 
L 376.703922 123.75996 
L 376.624736 125.171168 
L 376.613725 125.071122 
L 376.59193 124.43363 
L 376.581144 122.584998 
L 376.507684 125.435571 
L 376.48734 124.826102 
L 376.457354 127.446582 
L 376.399265 122.979604 
L 376.307748 122.196668 
L 376.316617 123.966022 
L 376.290187 122.479065 
L 376.197575 124.907574 
L 376.247291 121.036816 
L 376.173383 124.864376 
L 376.073069 121.089885 
L 376.043457 121.643243 
L 376.021557 120.36388 
L 375.94998 123.479309 
L 375.907704 122.112671 
L 375.879659 124.247011 
L 375.844652 123.460033 
L 375.823625 124.885111 
L 375.774336 121.173205 
L 375.745913 119.49193 
L 375.695382 123.248037 
L 375.680703 122.832129 
L 375.673318 122.911147 
L 375.665902 124.994027 
L 375.613034 122.793757 
L 375.566258 124.737666 
L 375.47643 121.941024 
L 375.501495 125.103704 
L 375.450907 123.369573 
L 375.398403 125.835548 
L 375.424905 122.308741 
L 375.353081 124.099816 
L 375.334536 122.345948 
L 375.247949 123.798644 
L 375.217893 123.937772 
L 375.134656 121.432784 
L 375.155896 124.333554 
L 375.091283 122.744222 
L 375.08025 122.171209 
L 375.023921 124.242609 
L 374.977447 125.272803 
L 374.953737 123.795479 
L 374.941762 123.837091 
L 374.817535 120.165491 
L 374.804651 120.473816 
L 374.765476 119.804086 
L 374.75224 120.680144 
L 374.711992 120.537735 
L 374.542632 123.878916 
L 374.684703 120.462428 
L 374.527904 122.696925 
L 374.513081 122.102745 
L 374.46804 123.556873 
L 374.452836 124.338956 
L 374.406659 123.033082 
L 374.391078 123.120769 
L 374.375403 121.382951 
L 374.295615 123.755926 
L 374.279376 123.005424 
L 374.230102 126.535961 
L 374.163125 124.622553 
L 374.059984 122.439256 
L 374.042487 123.700105 
L 374.024905 124.472991 
L 373.953724 123.484228 
L 373.935719 124.262222 
L 373.862878 123.33735 
L 373.844466 125.506171 
L 373.751233 124.01 
L 373.732358 123.920567 
L 373.713408 124.683345 
L 373.656119 122.528352 
L 373.617566 122.604849 
L 373.598184 122.215743 
L 373.578732 122.770849 
L 373.460595 125.902816 
L 373.380551 123.314417 
L 373.360387 124.586747 
L 373.299546 124.152153 
L 373.217647 125.79757 
L 373.176386 124.496806 
L 373.155682 125.235426 
L 373.134929 126.624648 
L 373.11413 123.950797 
L 373.051466 124.784662 
L 372.988427 124.266183 
L 372.882618 127.000197 
L 372.840065 125.35269 
L 372.797399 125.809764 
L 372.776026 127.214191 
L 372.733209 125.497432 
L 372.711767 126.19777 
L 372.604276 123.798612 
L 372.518019 126.089443 
L 372.47483 125.588165 
L 372.453225 125.942145 
L 372.431615 128.42559 
L 372.366772 125.940824 
L 372.172414 121.187125 
L 372.150854 121.355113 
L 372.129304 120.822621 
L 372.064719 121.902303 
L 372.021722 122.550084 
L 371.957335 122.512644 
L 371.935905 123.296719 
L 371.914493 122.052589 
L 371.871724 122.675204 
L 371.807723 120.52725 
L 371.74392 120.936219 
L 371.701502 121.155297 
L 371.659183 122.065946 
L 371.638063 120.343576 
L 371.61697 119.500488 
L 371.574864 121.667818 
L 371.553852 121.068724 
L 371.511916 121.257105 
L 371.490992 120.267022 
L 371.407601 120.443313 
L 371.386832 120.646431 
L 371.366095 120.168595 
L 371.324718 118.623984 
L 371.304079 120.506306 
L 371.283473 120.702193 
L 371.262899 119.224951 
L 371.24236 121.147768 
L 371.180946 120.451901 
L 371.079294 121.294133 
L 371.059072 119.687049 
L 370.998629 120.894142 
L 370.958523 123.563288 
L 370.878789 122.505366 
L 370.85896 122.460329 
L 370.760469 124.356491 
L 370.799731 122.344801 
L 370.740908 122.839829 
L 370.643821 120.948576 
L 370.605331 121.006865 
L 370.567043 121.893472 
L 370.509995 121.32635 
L 370.434662 119.678085 
L 370.378712 120.851672 
L 370.304852 121.598757 
L 370.250024 125.000449 
L 370.159767 124.369586 
L 370.053402 122.301172 
L 370.088613 125.01841 
L 370.035889 123.073406 
L 370.018439 123.022246 
L 370.001052 124.390276 
L 369.932146 122.896466 
L 369.915081 123.650009 
L 369.898083 121.438074 
L 369.847484 126.355555 
L 369.830752 124.91632 
L 369.814089 125.602448 
L 369.764514 123.413747 
L 369.748128 123.322174 
L 369.715567 120.096178 
L 369.619549 120.302401 
L 369.556903 119.2481 
L 369.510616 119.764156 
L 369.434765 121.101719 
L 369.419785 119.416532 
L 369.404868 118.595548 
L 369.375217 120.768142 
L 369.331191 119.509233 
L 369.273308 121.981019 
L 369.21633 121.13355 
L 369.202224 120.496 
L 369.188172 121.755789 
L 369.104987 120.711047 
L 368.95726 125.616839 
L 368.931041 125.56475 
L 368.716134 120.082768 
L 368.905019 127.667432 
L 368.679614 120.756464 
L 368.619586 124.459531 
L 368.560574 122.652735 
L 368.52564 121.668675 
L 368.502541 124.237287 
L 368.378197 129.500595 
L 368.323227 122.987575 
L 368.226728 125.307673 
L 368.216198 126.742757 
L 368.143524 121.619675 
L 368.112905 119.545745 
L 368.032525 121.316764 
L 368.002781 121.901738 
L 367.983051 121.747397 
L 367.973214 122.51698 
L 367.914527 120.196073 
L 367.904793 121.007696 
L 367.846567 117.278304 
L 367.778682 118.703157 
L 367.67096 121.820387 
L 367.65113 119.534397 
L 367.641179 119.032936 
L 367.611164 121.352143 
L 367.54003 119.355378 
L 367.369752 122.271976 
L 367.358687 123.646139 
L 367.279672 119.805071 
L 367.233227 120.835506 
L 367.17373 116.738725 
L 367.11247 118.818354 
L 367.087436 118.566741 
L 366.943899 120.593152 
L 366.861173 118.183035 
L 366.832865 120.352501 
L 366.818571 120.439247 
L 366.715829 118.992007 
L 366.730797 120.819873 
L 366.685597 119.238549 
L 366.670333 120.061469 
L 366.639502 118.470155 
L 366.57662 119.760563 
L 366.560642 119.886856 
L 366.54456 118.240371 
L 366.479179 119.714622 
L 366.462569 121.800263 
L 366.360688 121.54928 
L 366.343337 120.708537 
L 366.290652 122.57868 
L 366.272881 121.575587 
L 366.255005 122.329444 
L 366.200752 121.187784 
L 366.18246 121.952286 
L 366.070545 118.815758 
L 366.032415 119.762234 
L 365.993871 119.972371 
L 365.974445 119.335046 
L 365.915545 120.293122 
L 365.774533 124.198869 
L 365.733343 123.593698 
L 365.586153 121.218938 
L 365.543254 121.164964 
L 365.456362 120.274272 
L 365.345745 123.14624 
L 365.300899 120.598031 
L 365.255721 122.603453 
L 365.21022 123.676522 
L 365.18735 123.391379 
L 365.118281 120.569803 
L 365.07186 122.574031 
L 365.001688 123.354462 
L 364.978158 120.778316 
L 364.907164 123.137785 
L 364.763478 121.129273 
L 364.739325 121.580617 
L 364.715115 122.315246 
L 364.666532 120.757836 
L 364.544152 118.660264 
L 364.370743 122.430475 
L 364.345789 121.338226 
L 364.320793 121.1811 
L 364.270681 123.307584 
L 364.245567 120.675064 
L 364.220416 120.578824 
L 364.195229 121.33808 
L 364.144752 120.336354 
L 364.119463 120.268484 
L 363.967094 117.143848 
L 363.941599 117.334954 
L 363.890527 118.656246 
L 363.839351 117.797385 
L 363.813725 117.935724 
L 363.710988 121.228149 
L 363.685251 121.136403 
L 363.556296 119.673507 
L 363.530459 119.715918 
L 363.426982 119.845199 
L 363.349265 117.705175 
L 363.323342 119.019231 
L 363.271474 117.472289 
L 363.245529 118.304834 
L 363.219579 118.448776 
L 363.193622 117.879849 
L 363.167661 117.993596 
L 363.063781 120.246007 
L 363.037807 120.223306 
L 363.011832 120.201806 
L 362.959887 119.362483 
L 362.907953 120.12581 
L 362.881993 120.108884 
L 362.83009 119.279956 
L 362.804151 120.546985 
L 362.778219 121.291723 
L 362.726389 120.181217 
L 362.674607 118.860229 
L 362.622881 120.14076 
L 362.597042 120.040138 
L 362.468132 123.355452 
L 362.442418 122.312083 
L 362.314254 119.059635 
L 362.288709 119.571836 
L 362.263195 118.312531 
L 362.237714 118.3641 
L 362.136115 116.624988 
L 362.035061 119.983592 
L 361.984751 119.922087 
L 361.959654 117.917318 
L 361.884595 118.032158 
L 361.834758 118.900941 
L 361.809902 118.206174 
L 361.710898 117.121256 
L 361.539321 121.267794 
L 361.490715 120.942896 
L 361.346089 118.642854 
L 361.322164 117.486766 
L 361.250706 118.474666 
L 361.203332 118.617017 
L 361.156174 116.883191 
L 361.109231 117.844969 
L 360.946666 121.699741 
L 360.809592 119.230466 
L 360.71944 119.533337 
L 360.674737 117.181082 
L 360.586075 118.07428 
L 360.454952 121.435904 
L 360.304899 117.331433 
L 360.283725 117.407956 
L 360.178834 118.452616 
L 360.15805 117.739485 
L 360.116676 119.040525 
L 360.096086 118.961202 
L 360.075561 121.176716 
L 360.014379 118.502675 
L 359.994116 119.280324 
L 359.953788 119.21799 
L 359.854111 118.293404 
L 359.795089 120.173301 
L 359.756067 117.940644 
L 359.736654 118.731632 
L 359.678801 118.753386 
L 359.659645 117.972897 
L 359.621523 120.522939 
L 359.602559 121.234447 
L 359.583658 118.710542 
L 359.546049 119.414376 
L 359.527339 119.355743 
L 359.379882 114.99687 
L 359.361713 115.227357 
L 359.307532 116.483916 
L 359.289576 114.998462 
L 359.253813 115.081491 
L 359.21824 114.994898 
L 359.165213 117.717126 
L 359.130075 121.234825 
L 359.077683 117.306089 
L 359.060301 118.108328 
L 359.008392 118.222727 
L 358.991165 117.484471 
L 358.922624 118.81973 
L 358.905577 119.577978 
L 358.888565 118.168014 
L 358.820849 118.434244 
L 358.804001 118.369644 
L 358.670314 121.022302 
L 358.571276 117.701594 
L 358.538484 118.482503 
L 358.522126 119.842282 
L 358.424488 119.205447 
L 358.408295 119.129936 
L 358.311557 117.975625 
L 358.295498 118.752494 
L 358.279456 118.714562 
L 358.263429 117.422084 
L 358.183493 119.308315 
L 358.167541 118.642999 
L 358.056103 115.851425 
L 358.024303 116.811103 
L 358.008403 116.21765 
L 357.96069 118.477647 
L 357.944778 117.649157 
L 357.928861 118.431613 
L 357.912938 117.608232 
L 357.849166 118.340283 
L 357.769205 115.64892 
L 357.721039 116.036863 
L 357.704944 116.145414 
L 357.688828 115.846953 
L 357.672688 115.360866 
L 357.624118 116.72378 
L 357.493315 119.106827 
L 357.410453 116.062415 
L 357.377034 117.41734 
L 357.326588 117.364318 
L 357.309686 116.184231 
L 357.2587 118.423983 
L 357.241609 116.379537 
L 357.17275 119.738482 
L 357.120569 118.029212 
L 357.10307 117.222155 
L 357.067911 119.240217 
L 357.014762 117.685408 
L 356.996933 117.701171 
L 356.852183 114.878208 
L 356.943101 117.737466 
L 356.833812 115.05177 
L 356.759665 117.308282 
L 356.722184 116.619069 
L 356.703339 115.527724 
L 356.684423 117.557188 
L 356.646375 116.481852 
L 356.627241 117.817058 
L 356.549963 116.554462 
L 356.530455 116.65053 
L 356.510869 117.989137 
L 356.451644 115.719649 
L 356.411761 114.310867 
L 356.31059 114.801988 
L 356.228075 114.549066 
L 356.122851 116.682123 
L 356.058573 114.762664 
L 355.993413 115.204685 
L 355.949474 118.579154 
L 355.860391 118.435465 
L 355.746765 115.953571 
L 355.723735 116.073621 
L 355.700602 115.467209 
L 355.677365 116.283847 
L 355.654025 115.647252 
L 355.511806 118.957042 
L 355.390459 117.460694 
L 355.365885 118.219399 
L 355.316434 116.75222 
L 355.26658 118.019159 
L 355.216326 115.946545 
L 355.140193 116.818103 
L 355.063159 114.705798 
L 355.011299 115.485448 
L 354.985218 115.557191 
L 354.959035 116.364033 
L 354.93275 114.588945 
L 354.906364 113.715203 
L 354.853285 114.110519 
L 354.745889 117.557903 
L 354.66427 116.611229 
L 354.636861 116.574647 
L 354.581745 117.809084 
L 354.526235 117.517455 
L 354.385766 114.678509 
L 354.126977 122.03538 
L 354.068493 119.891631 
L 354.039128 122.431267 
L 354.009682 120.647722 
L 353.559198 114.068909 
L 353.43646 117.886378 
L 353.374708 117.500402 
L 353.34374 118.233738 
L 353.281627 117.926331 
L 353.188029 115.233399 
L 353.156718 115.335541 
L 353.125351 115.428565 
L 353.030925 113.926163 
L 352.999341 114.754358 
L 352.967704 116.077944 
L 352.936014 114.211044 
L 352.904271 115.031454 
L 352.872476 114.427356 
L 352.84063 114.521349 
L 352.808732 115.333133 
L 352.744786 114.348215 
L 352.680638 114.652279 
L 352.616293 113.811502 
L 352.584047 114.006456 
L 352.487019 117.110362 
L 352.422104 116.806799 
L 352.389581 116.675278 
L 352.357016 117.422708 
L 352.324411 116.445838 
L 352.193602 115.159966 
L 352.062218 118.443688 
L 352.029291 118.214002 
L 351.996334 118.006898 
L 351.831151 115.400606 
L 351.798041 116.179107 
L 351.764909 114.92201 
L 351.731755 114.278137 
L 351.69858 115.085615 
L 351.63217 116.872517 
L 351.532427 120.259996 
L 351.499152 119.804743 
L 351.399275 117.7393 
L 351.36597 118.441022 
L 351.332661 119.84713 
L 351.299351 118.386967 
L 351.266042 119.064892 
L 351.19943 117.474043 
L 351.033004 115.564701 
L 350.966499 117.561561 
L 350.933265 115.184804 
L 350.900045 113.983132 
L 350.833649 114.121219 
L 350.800473 116.198703 
L 350.734172 115.27696 
L 350.667943 114.108435 
L 350.634857 115.363634 
L 350.601791 115.308117 
L 350.568747 116.076876 
L 350.535725 115.208735 
L 350.436796 114.094916 
L 350.370963 114.189026 
L 350.272406 115.058871 
L 350.174091 115.139208 
L 350.141376 113.962361 
L 350.10869 114.0788 
L 350.043403 113.160616 
L 350.010803 113.335862 
L 349.978232 114.653414 
L 349.913179 114.006165 
L 349.751083 114.172558 
L 349.557658 117.14404 
L 349.429454 113.474284 
L 349.397502 114.281754 
L 349.301891 115.527494 
L 349.270104 115.486457 
L 349.23836 114.63778 
L 349.175001 115.3786 
L 349.017402 118.919236 
L 348.986028 118.517461 
L 348.89222 114.16611 
L 348.861057 115.429541 
L 348.829949 115.309012 
L 348.736952 112.840565 
L 348.706063 114.090516 
L 348.675229 114.875223 
L 348.58306 114.865794 
L 348.521895 114.067222 
L 348.491396 116.209905 
L 348.400247 115.848357 
L 348.339772 112.567611 
L 348.249492 112.880947 
L 348.219513 112.566714 
L 348.12991 114.011957 
L 348.100154 113.316813 
L 348.040807 113.404305 
L 348.011216 114.663235 
L 347.922774 114.205789 
L 347.893403 113.473524 
L 347.834824 113.523735 
L 347.6315 116.763038 
L 347.459378 114.861469 
L 347.374089 119.965758 
L 347.31753 118.835549 
L 347.149343 113.561616 
L 347.038448 115.250267 
L 347.010877 115.08473 
L 346.983366 115.823888 
L 346.955917 114.798438 
L 346.928529 114.197927 
L 346.901201 115.550916 
L 346.873934 114.564383 
L 346.738511 117.483709 
L 346.684773 116.861047 
L 346.55153 113.593238 
L 346.52507 114.371975 
L 346.472334 114.324748 
L 346.28962 111.584384 
L 346.186401 110.271827 
L 346.160714 110.501691 
L 346.058395 112.785396 
L 346.032915 112.157819 
L 346.007472 112.240395 
L 345.982066 114.307885 
L 345.90606 112.957842 
L 345.880792 113.036206 
L 345.83035 111.335642 
L 345.780024 112.726664 
L 345.754901 112.754232 
L 345.729803 113.548671 
L 345.654652 112.835758 
L 345.629646 111.716232 
L 345.55474 113.174714 
L 345.529805 113.95577 
L 345.47998 113.920057 
L 345.430208 110.957333 
L 345.355621 112.094069 
L 345.33077 111.524542 
L 345.305923 112.775644 
L 345.181709 114.814411 
L 345.156864 114.705317 
L 345.107166 113.206054 
L 345.057452 113.736774 
L 345.032587 115.013456 
L 344.982837 113.285235 
L 344.957952 112.788904 
L 344.933057 113.305702 
L 344.883239 113.20876 
L 344.833376 115.214869 
L 344.783466 114.028975 
L 344.558031 108.573119 
L 344.53286 109.799956 
L 344.381093 113.231612 
L 344.355664 113.240942 
L 344.330192 112.466517 
L 344.304678 114.601899 
L 344.279121 113.61975 
L 344.253521 114.374619 
L 344.227876 113.425215 
L 344.202186 114.185292 
L 344.047053 111.956654 
L 343.863681 112.161289 
L 343.757603 112.99562 
L 343.730925 111.087086 
L 343.650492 111.368066 
L 343.623544 111.445383 
L 343.596524 113.516596 
L 343.515031 112.590877 
L 343.487719 112.558805 
L 343.350027 114.365918 
L 343.294411 112.007815 
L 343.210394 112.819322 
L 343.182227 112.827372 
L 343.068714 110.288613 
L 343.040116 110.434602 
L 342.837337 114.110891 
L 342.807987 113.987725 
L 342.748996 113.772759 
L 342.719355 112.368744 
L 342.659776 113.624365 
L 342.629839 114.994731 
L 342.569669 113.665259 
L 342.539437 113.498271 
L 342.509105 115.785635 
L 342.44815 115.200591 
L 342.294058 113.026127 
L 342.262945 112.985864 
L 342.200423 111.027643 
L 342.16901 111.832062 
L 342.137497 113.17149 
L 342.074164 113.058254 
L 341.978392 109.096048 
L 341.946257 110.332764 
L 341.685266 115.060848 
L 341.652151 114.798078 
L 341.618927 113.626375 
L 341.518612 113.982484 
L 341.451201 113.680894 
L 341.280809 111.243438 
L 341.24641 112.032478 
L 341.177288 111.279641 
L 341.142565 111.287539 
L 341.002577 109.360441 
L 340.967302 109.5189 
L 340.931915 111.511882 
L 340.896413 109.703884 
L 340.789214 108.294559 
L 340.753244 108.524953 
L 340.680941 110.580372 
L 340.644607 108.94626 
L 340.49803 111.146265 
L 340.461074 110.46922 
L 340.386786 110.57238 
L 340.349453 110.615864 
L 340.311994 110.237409 
L 340.236694 110.490857 
L 340.198851 110.601239 
L 340.160881 111.929256 
L 340.122782 111.124695 
L 339.969095 109.286932 
L 339.891467 110.243526 
L 339.774027 107.983819 
L 339.73461 108.209503 
L 339.454837 112.321713 
L 339.41432 112.174651 
L 339.332879 109.621446 
L 339.291955 109.711204 
L 339.250895 111.761876 
L 339.168372 110.908015 
L 339.126908 111.683186 
L 339.085312 111.658859 
L 338.959725 110.792787 
L 338.917599 110.771661 
L 338.875342 111.547865 
L 338.832954 110.293195 
L 338.790435 110.377836 
L 338.747786 110.89899 
L 338.705007 109.685232 
L 338.662098 110.488183 
L 338.61906 110.551731 
L 338.575892 109.86257 
L 338.532595 110.659611 
L 338.489168 110.704924 
L 338.401931 110.780496 
L 338.35812 108.933949 
L 338.092581 112.2966 
L 338.003069 112.073917 
L 337.958131 111.130324 
L 337.913073 113.341293 
L 337.867897 113.114334 
L 337.73167 110.586019 
L 337.686032 111.354412 
L 337.594416 111.27226 
L 337.409857 109.886917 
L 337.176733 112.454266 
L 337.129795 110.122263 
L 337.035614 110.876179 
L 336.941033 110.039991 
L 336.798433 113.269699 
L 336.654999 110.532031 
L 336.414211 114.676059 
L 336.317344 113.853089 
L 336.268802 115.272097 
L 336.122771 111.628998 
L 336.025101 115.374591 
L 335.976178 114.835743 
L 335.9272 113.282913 
L 335.878171 115.796771 
L 335.829092 113.422149 
L 335.779966 113.10574 
L 335.730795 114.51111 
L 335.533705 109.317294 
L 335.385492 111.951467 
L 335.336019 111.773108 
L 335.137823 109.201091 
L 335.038559 110.454036 
L 334.889476 109.08513 
L 334.839736 109.084218 
L 334.789974 109.864254 
L 334.690387 109.857322 
L 334.640565 109.852004 
L 334.590724 109.059936 
L 334.490991 111.058025 
L 334.441102 110.076269 
L 334.291354 106.68566 
L 334.141484 108.799276 
L 334.041504 106.185778 
L 333.991492 107.030063 
L 333.741193 107.879997 
L 333.691082 107.312649 
L 333.590812 110.67086 
L 333.540653 108.460129 
L 333.49048 109.244392 
L 333.440293 109.255084 
L 333.339877 107.453199 
L 333.289649 109.489517 
L 333.189155 109.45547 
L 333.138889 108.210274 
L 333.038324 108.374841 
L 332.937711 106.682979 
L 332.887387 107.506726 
L 332.736342 109.337752 
L 332.685971 108.019367 
L 332.635591 110.119813 
L 332.534806 109.935516 
L 332.484402 109.85361 
L 332.433992 111.213576 
L 332.383579 110.087673 
L 332.232321 109.336428 
L 332.181899 109.299473 
L 332.131476 110.650752 
L 332.081054 109.115266 
L 332.030633 107.138691 
L 331.929792 107.285053 
L 331.879372 107.347182 
L 331.828953 108.145095 
L 331.778535 107.452081 
L 331.627276 106.25388 
L 331.576854 106.448831 
L 331.425555 104.478344 
L 331.223692 106.042889 
L 331.173192 104.631118 
L 331.122674 104.873271 
L 331.072138 105.097312 
L 330.971004 106.14394 
L 330.920404 105.670101 
L 330.86978 105.83099 
L 330.717757 106.931812 
L 330.66703 106.347702 
L 330.616275 107.159839 
L 330.565492 105.488463 
L 330.514679 106.320243 
L 330.412961 105.563728 
L 330.260135 107.184689 
L 330.055861 104.556528 
L 330.004693 104.83027 
L 329.902226 106.281095 
L 329.69673 103.987441 
L 329.593671 105.482319 
L 329.542057 104.667655 
L 329.438653 106.118034 
L 329.38686 104.570359 
L 329.283085 107.0407 
L 329.231103 106.614968 
L 329.179058 107.149787 
L 329.12695 109.281678 
L 329.074779 108.278087 
L 329.022547 108.160875 
L 328.970255 108.907289 
L 328.917902 108.802095 
L 328.813018 107.776852 
L 328.760488 109.975967 
L 328.602558 107.400708 
L 328.549802 107.34947 
L 328.49699 108.114412 
L 328.391197 106.133965 
L 328.338216 106.18624 
L 328.178929 107.064529 
L 328.125717 106.340353 
L 328.072447 106.367231 
L 327.965732 108.492227 
L 327.858785 106.343919 
L 327.697931 109.707847 
L 327.536577 107.686617 
L 327.482686 107.64653 
L 327.42874 105.63116 
L 327.374741 105.696328 
L 327.320686 105.754523 
L 327.212412 106.600271 
L 327.10391 103.895921 
L 327.04957 104.086262 
L 326.995168 103.89597 
L 326.831571 104.572958 
L 326.502426 102.361608 
L 326.281351 105.915722 
L 326.22586 105.98858 
L 326.170278 105.315976 
L 326.114604 106.112046 
L 326.05884 105.417139 
L 326.002982 105.458985 
L 325.778612 104.331858 
L 325.722277 104.513155 
L 325.552661 103.433339 
L 325.495913 103.616341 
L 325.439056 104.447582 
L 325.382089 102.946069 
L 325.32501 103.159699 
L 325.267817 103.356556 
L 325.153084 105.827897 
L 325.095543 105.80601 
L 324.980115 105.762481 
L 324.922226 105.304598 
L 324.864221 105.826915 
L 324.806099 104.630641 
L 324.74786 106.680877 
L 324.689503 106.640496 
L 324.63103 104.626434 
L 324.572439 104.690808 
L 324.395958 107.141451 
L 324.336898 107.866328 
L 324.159029 106.177646 
L 323.980135 107.250329 
L 323.860313 106.171883 
L 323.619356 109.433641 
L 323.498243 107.234019 
L 323.437534 108.602059 
L 323.193708 104.34444 
L 323.132507 104.388922 
L 323.071207 105.179022 
L 323.009808 104.461585 
L 322.94831 105.248562 
L 322.886712 104.515293 
L 322.825014 104.535971 
L 322.763216 105.319126 
L 322.577218 104.159712 
L 322.452711 105.470769 
L 322.327796 104.671613 
L 322.265186 105.446044 
L 322.202473 105.435358 
L 322.139659 105.423618 
L 322.076742 106.764756 
L 322.013725 105.758894 
L 321.887391 105.527636 
L 321.824076 106.272994 
L 321.760662 106.172684 
L 321.697151 104.025433 
L 321.633541 104.81085 
L 321.569832 104.072665 
L 321.506024 104.090405 
L 321.37811 104.885406 
L 321.314003 102.996993 
L 321.249795 103.095697 
L 321.056544 102.442907 
L 320.991913 103.261921 
L 320.927172 102.316863 
L 320.732276 104.238121 
L 320.60178 104.192041 
L 320.536363 104.96179 
L 320.405187 103.686735 
L 320.339427 103.767294 
L 320.273553 105.089246 
L 320.207563 105.046225 
L 320.141459 105.004921 
L 319.942453 102.029122 
L 319.875882 104.010035 
L 319.809193 103.295276 
L 319.675456 104.10921 
L 319.608406 102.256618 
L 319.541235 103.06683 
L 319.47394 102.462618 
L 319.406521 102.550636 
L 319.271306 103.428 
L 319.203507 101.688512 
L 319.135579 103.663261 
L 318.999331 100.970725 
L 318.862545 101.989231 
L 318.793944 101.490533 
L 318.65632 102.45202 
L 318.587293 102.579771 
L 318.518121 101.994111 
L 318.379337 102.895042 
L 318.309721 101.199362 
L 318.239955 102.022838 
L 318.029731 100.709717 
L 317.959342 101.541903 
L 317.888791 101.057986 
L 317.818077 100.838648 
L 317.67615 101.560344 
L 317.533545 100.449694 
L 317.318318 101.124565 
L 317.246213 100.663051 
L 317.173923 101.4893 
L 317.028779 100.109947 
L 316.882869 101.140188 
L 316.736172 101.480058 
L 316.662525 100.949025 
L 316.588676 102.933652 
L 316.514626 102.203575 
L 316.440373 102.984708 
L 316.291259 101.133221 
L 316.216396 101.939374 
L 316.066051 100.352444 
L 315.990565 101.175061 
L 315.914867 99.650394 
L 315.838955 99.85243 
L 315.762825 99.679387 
L 315.686475 99.930538 
L 315.609902 101.214544 
L 315.533104 100.665486 
L 315.456079 100.781448 
L 315.378827 101.588106 
L 315.301346 99.938555 
L 315.223633 100.103189 
L 315.145687 100.923781 
L 315.067506 100.013887 
L 314.989086 100.224158 
L 314.910425 99.769108 
L 314.831523 101.711806 
L 314.752377 101.061432 
L 314.433332 99.494475 
L 314.352944 99.668175 
L 314.272301 99.826849 
L 313.947156 102.467925 
L 313.865226 102.381019 
L 313.617893 100.136586 
L 313.53493 99.850414 
L 313.284465 101.293746 
L 313.03162 99.345686 
L 312.946802 99.549829 
L 312.861711 99.086422 
L 312.604793 102.521879 
L 312.432142 102.396211 
L 312.345407 101.081445 
L 312.258398 101.133509 
L 312.171115 101.178631 
L 312.083558 100.46957 
L 311.819242 102.600261 
L 311.73059 102.502146 
L 311.641666 100.370889 
L 311.55247 100.394502 
L 311.102444 104.827707 
L 311.011648 104.474657 
L 310.829285 101.661834 
L 310.737723 102.915965 
L 310.645911 102.669408 
L 310.55385 101.114488 
L 310.368987 102.285438 
L 310.183152 101.910001 
L 310.089874 102.628399 
L 309.996358 100.327559 
L 309.902606 101.089946 
L 309.808616 101.06505 
L 309.71439 101.039325 
L 309.619929 101.492523 
L 309.525235 100.872489 
L 309.430308 101.330639 
L 309.23976 100.711828 
L 309.14414 102.038972 
L 309.048292 101.901448 
L 308.855915 99.683276 
L 308.66263 100.916255 
L 308.468449 100.678993 
L 307.979106 97.943351 
L 307.682808 100.494365 
L 307.583592 100.450527 
L 307.484152 99.17091 
L 307.284599 100.428051 
L 307.184487 100.377178 
L 306.983597 100.279178 
L 306.88282 99.431413 
L 306.781823 100.185405 
L 306.680605 100.139855 
L 306.579169 100.09508 
L 306.477515 100.536897 
L 306.375645 100.374114 
L 306.27356 101.094983 
L 306.171263 100.083981 
L 306.068756 100.811267 
L 305.966038 100.684188 
L 305.863113 99.720104 
L 305.759981 100.454707 
L 305.656643 99.514524 
L 305.553101 100.252839 
L 305.241251 97.661392 
L 305.032327 100.275906 
L 304.927558 100.163883 
L 304.612025 96.917018 
L 304.400636 97.806121 
L 304.294627 97.172737 
L 304.081973 98.023599 
L 303.868461 96.981538 
L 303.761378 97.112389 
L 303.438809 98.423139 
L 303.330844 98.425289 
L 303.114243 96.617744 
L 303.005603 96.693777 
L 302.896736 97.4809 
L 302.787639 96.818677 
L 302.67831 96.86884 
L 302.458955 97.688932 
L 302.348925 95.885699 
L 302.238657 95.997282 
L 302.128148 96.794258 
L 302.017396 96.185878 
L 301.9064 96.976146 
L 301.795156 96.333466 
L 301.683664 97.117908 
L 301.571922 96.445634 
L 301.34768 96.527378 
L 301.235179 98.576845 
L 301.122424 98.494426 
L 301.009416 97.598086 
L 300.896156 98.837615 
L 300.782645 98.642607 
L 300.668886 99.351446 
L 300.326126 96.749976 
L 300.096385 96.70862 
L 299.981143 97.466112 
L 299.749912 96.633696 
L 299.633921 97.389609 
L 299.401186 96.546408 
L 299.284439 96.082876 
L 299.167437 96.589506 
L 298.932667 96.504212 
L 298.814897 97.255072 
L 298.696869 96.41887 
L 298.578584 96.376163 
L 298.46004 97.126809 
L 298.222172 97.041139 
L 298.102846 95.768961 
L 297.863399 95.882436 
L 297.743271 94.7846 
L 297.62287 94.912263 
L 297.259966 92.759966 
L 297.01655 93.78544 
L 296.526 96.399603 
L 296.402574 95.567634 
L 296.154776 99.027735 
L 295.905728 98.433685 
L 295.780741 98.746183 
L 295.655451 101.201346 
L 295.403975 98.553603 
L 295.277793 98.263933 
L 295.151318 97.067899 
L 295.024551 97.758647 
L 294.897493 96.632023 
L 294.770147 98.891492 
L 294.642516 98.54013 
L 294.386402 96.986255 
L 294.129175 100.700554 
L 294.000152 97.370519 
L 293.870861 98.036827 
L 293.741304 99.409623 
L 293.611485 97.90786 
L 293.481406 98.550298 
L 293.35107 97.190678 
L 293.22048 97.854787 
L 292.958544 97.282381 
L 292.8272 96.111203 
L 292.563765 97.143948 
L 292.431678 95.394294 
L 292.299344 96.105151 
L 292.166764 95.949534 
L 292.033935 94.948491 
L 291.767535 96.056248 
L 291.633963 95.299625 
L 291.366069 95.099967 
L 291.231742 92.990759 
L 290.962318 94.941011 
L 290.827216 92.835068 
L 290.691848 93.600807 
L 290.420298 91.771839 
L 290.284106 91.864503 
L 290.147628 93.848326 
L 290.010861 93.827495 
L 289.736455 95.514869 
L 289.598816 95.245543 
L 289.460887 95.927429 
L 289.322667 94.772541 
L 289.184158 95.466237 
L 289.045358 95.262464 
L 288.906267 94.192116 
L 288.766883 94.025779 
L 288.627204 92.618308 
L 288.487228 94.708658 
L 288.346952 94.554324 
L 288.206376 93.556416 
L 288.065496 93.426582 
L 287.92431 92.842444 
L 287.641001 92.830352 
L 287.498868 92.050603 
L 287.35641 92.803325 
L 287.213623 92.012872 
L 287.070503 94.09338 
L 286.927048 93.09561 
L 286.783255 93.812688 
L 286.639123 93.68463 
L 286.494647 92.726025 
L 286.349826 92.615591 
L 286.059135 93.740612 
L 285.767046 97.405031 
L 285.620481 95.1369 
L 285.47357 94.833447 
L 285.326312 93.620875 
L 284.882459 95.270724 
L 284.733816 93.944776 
L 284.584828 96.292736 
L 284.435498 95.816206 
L 284.285827 94.361387 
L 284.135816 95.00501 
L 283.985467 96.380535 
L 283.683761 94.362107 
L 283.532407 94.997628 
L 283.380719 93.094351 
L 283.228695 94.432358 
L 283.076334 93.149391 
L 282.923636 93.818765 
L 282.7706 93.551098 
L 282.617221 91.891699 
L 282.463495 91.801042 
L 282.309417 90.89951 
L 282.154981 90.816764 
L 282.000182 91.5468 
L 281.845013 90.214105 
L 281.533532 90.267165 
L 281.220468 89.129879 
L 281.063316 87.516051 
L 280.905733 87.671197 
L 280.589232 90.871808 
L 280.430298 90.007525 
L 280.270901 89.943199 
L 280.111031 88.717428 
L 279.950679 89.482302 
L 279.789835 88.780933 
L 279.62849 89.540928 
L 279.30425 87.82212 
L 279.141331 88.601164 
L 278.977865 87.977404 
L 278.813841 89.179484 
L 278.649251 89.135756 
L 278.484089 90.350994 
L 278.318348 89.715984 
L 277.649428 89.554754 
L 277.480667 88.726715 
L 277.311277 89.463609 
L 277.14125 88.630977 
L 276.970577 89.844618 
L 276.799255 89.677478 
L 276.627277 90.379303 
L 276.454635 88.136619 
L 276.107333 90.052051 
L 275.932661 90.425838 
L 275.757304 90.162586 
L 275.581257 90.836434 
L 275.404515 88.391079 
L 275.227071 90.508952 
L 275.048921 89.399909 
L 274.870057 89.207084 
L 274.690474 87.76407 
L 274.329102 86.606665 
L 274.147287 87.365488 
L 273.964702 87.395645 
L 273.597171 85.606022 
L 273.412196 86.381895 
L 273.039738 84.897135 
L 272.852222 86.081519 
L 272.284355 86.149483 
L 271.901203 85.159842 
L 271.514257 88.397907 
L 271.319336 87.408944 
L 271.123438 87.274085 
L 270.926555 87.978707 
L 270.728678 87.020998 
L 270.529801 89.157188 
L 269.927103 88.439985 
L 269.724161 87.352997 
L 269.520185 87.166872 
L 269.315166 85.741445 
L 269.109092 86.46788 
L 268.901948 85.205768 
L 268.693717 85.251096 
L 268.273923 83.608957 
L 267.849554 83.774759 
L 267.635608 84.535519 
L 267.420462 83.891802 
L 267.2041 84.64514 
L 266.986501 83.569927 
L 266.767645 83.685021 
L 266.547512 83.108608 
L 266.32608 83.871661 
L 266.10333 83.251036 
L 265.879246 84.430376 
L 265.653811 83.25088 
L 265.427006 83.290622 
L 265.198813 84.037214 
L 264.969214 83.340575 
L 264.738191 84.080847 
L 264.505729 85.344907 
L 263.799584 85.027328 
L 263.561241 85.414653 
L 263.321399 83.910551 
L 263.080044 84.616593 
L 262.59274 84.435188 
L 262.346762 83.548781 
L 261.85008 83.36667 
L 261.599346 82.117178 
L 261.346992 83.291219 
L 261.093007 85.371539 
L 260.837378 82.98054 
L 260.321128 82.797301 
L 260.060475 83.497962 
L 259.798114 82.175863 
L 259.534025 83.426084 
L 259.268189 82.082637 
L 259.000589 82.526836 
L 258.731209 82.413755 
L 258.460033 83.105724 
L 258.187044 82.993418 
L 257.912226 82.079688 
L 257.635565 83.258956 
L 257.357048 81.752274 
L 257.076656 82.44587 
L 256.794372 81.55214 
L 256.510178 82.244425 
L 256.224056 82.142754 
L 255.935987 81.247204 
L 255.353933 81.040637 
L 255.059906 79.780611 
L 254.465733 79.757876 
L 254.16554 81.729977 
L 253.55884 81.460716 
L 253.252292 79.344433 
L 252.943576 78.909778 
L 252.632659 78.969311 
L 252.319513 79.432823 
L 251.366453 79.222605 
L 251.044143 79.912613 
L 250.71948 79.061322 
L 250.392439 78.975138 
L 250.062994 79.660028 
L 249.73112 79.568874 
L 249.396792 78.697059 
L 249.059983 78.598485 
L 248.720668 79.277342 
L 248.378821 78.393483 
L 248.034414 78.287329 
L 247.68742 78.962082 
L 247.337814 78.852346 
L 246.985567 77.955653 
L 246.630656 79.104391 
L 246.273059 78.871707 
L 245.912756 79.507213 
L 245.549724 78.433 
L 245.183945 80.53994 
L 244.444073 77.613465 
L 244.069932 77.442278 
L 243.692955 79.50237 
L 243.313122 78.297257 
L 242.93041 78.910418 
L 242.544794 76.482994 
L 242.156239 76.347945 
L 241.764714 77.00318 
L 241.370183 76.074108 
L 240.972613 76.727106 
L 240.571968 76.587199 
L 240.168217 76.928023 
L 239.761332 77.540614 
L 239.351286 77.282551 
L 238.938049 76.175848 
L 238.521589 76.794629 
L 237.678871 76.337351 
L 237.252539 74.822179 
L 236.822839 76.024749 
L 236.389729 74.509057 
L 235.513084 74.301583 
L 235.069452 73.425514 
L 234.622216 74.07248 
L 234.171331 75.270835 
L 233.716755 74.177911 
L 232.796343 72.603261 
L 232.330398 72.478771 
L 231.860554 73.117235 
L 231.386761 73.453436 
L 229.941228 72.721869 
L 229.451167 72.030998 
L 228.956903 72.371726 
L 228.458385 72.135573 
L 227.955552 71.4481 
L 227.448335 71.329319 
L 226.936666 70.446666 
L 226.420466 69.200671 
L 225.899658 71.045004 
L 225.374163 68.993876 
L 224.843901 70.847219 
L 224.308793 68.754586 
L 223.768751 69.391435 
L 222.673509 69.211991 
L 222.118129 68.373239 
L 221.557456 68.992965 
L 220.991407 69.320865 
L 220.419913 71.315248 
L 219.842912 70.938764 
L 219.260337 69.685508 
L 218.078189 69.020579 
L 217.478459 67.44982 
L 216.872835 68.034906 
L 215.643504 67.635409 
L 215.019601 68.777837 
L 213.752875 68.121062 
L 213.109866 66.953342 
L 212.460299 67.493436 
L 211.804082 67.701234 
L 211.141138 69.820473 
L 210.471389 67.642726 
L 209.794738 66.35506 
L 209.111084 66.865951 
L 208.420319 65.621324 
L 207.01693 62.645406 
L 206.303974 61.454448 
L 205.583256 61.384783 
L 204.854578 61.974059 
L 203.372548 61.772162 
L 202.618782 59.917648 
L 201.856201 58.885579 
L 201.084534 58.527942 
L 200.303495 57.982859 
L 199.5128 58.584671 
L 198.712178 59.611065 
L 197.901377 58.832967 
L 197.080142 58.703042 
L 196.24822 59.249151 
L 193.685725 58.744913 
L 192.808432 57.828054 
L 191.919106 56.547447 
L 189.175756 56.063666 
L 188.235083 55.482634 
L 187.280717 55.75563 
L 186.312338 56.677597 
L 185.329626 55.179381 
L 182.291924 54.386365 
L 181.248267 54.837094 
L 180.188422 53.795101 
L 179.111966 53.069209 
L 178.018435 52.150068 
L 176.907355 52.595856 
L 175.77824 51.62584 
L 174.630617 53.270329 
L 173.464034 52.871853 
L 172.278026 51.678784 
L 171.072108 51.264392 
L 169.84578 51.630162 
L 168.598517 50.412114 
L 167.329774 49.97398 
L 166.038986 50.316826 
L 164.725594 50.342893 
L 163.389091 52.145221 
L 160.644767 50.685719 
L 159.235872 49.054995 
L 157.801704 49.291123 
L 156.341623 48.610524 
L 154.854907 45.761788 
L 153.340726 46.022776 
L 151.798202 45.475735 
L 150.226363 42.960154 
L 146.990343 42.00787 
L 145.32383 42.243379 
L 143.623341 40.982516 
L 141.887574 40.442691 
L 140.115108 39.470698 
L 138.304362 38.298357 
L 130.644201 36.102757 
L 124.407595 34.19759 
L 122.22379 34.705238 
L 119.983785 34.709055 
L 117.685211 33.875849 
L 115.325528 32.211313 
L 112.90201 31.343512 
L 110.411605 30.010671 
L 107.850924 30.471574 
L 99.711779 27.56631 
L 96.833019 25.294181 
L 93.863384 23.61679 
L 90.797258 23.375175 
L 87.62855 21.608718 
L 84.350839 21.747871 
L 80.957643 21.358065 
L 77.441923 20.101638 
L 73.795909 17.985007 
L 73.795909 17.985007 
" clip-path="url(#p2f631786b2)" style="fill: none; stroke: #1f77b4; stroke-width: 1.5; stroke-linecap: square"/>
   </g>
   <g id="line2d_50">
    <path d="M 387.514091 128.39024 
L 73.795909 16.664162 
L 73.795909 16.664162 
" clip-path="url(#p2f631786b2)" style="fill: none; stroke: #ff7f0e; stroke-width: 1.5; stroke-linecap: square"/>
   </g>
   <g id="patch_3">
    <path d="M 58.11 139.811562 
L 58.11 10.8 
" style="fill: none; stroke: #000000; stroke-width: 0.8; stroke-linejoin: miter; stroke-linecap: square"/>
   </g>
   <g id="patch_4">
    <path d="M 403.2 139.811562 
L 403.2 10.8 
" style="fill: none; stroke: #000000; stroke-width: 0.8; stroke-linejoin: miter; stroke-linecap: square"/>
   </g>
   <g id="patch_5">
    <path d="M 58.11 139.811563 
L 403.2 139.811563 
" style="fill: none; stroke: #000000; stroke-width: 0.8; stroke-linejoin: miter; stroke-linecap: square"/>
   </g>
   <g id="patch_6">
    <path d="M 58.11 10.8 
L 403.2 10.8 
" style="fill: none; stroke: #000000; stroke-width: 0.8; stroke-linejoin: miter; stroke-linecap: square"/>
   </g>
   <g id="legend_1">
    <g id="patch_7">
     <path d="M 314.87625 44.420625 
L 396.9 44.420625 
Q 398.7 44.420625 398.7 42.620625 
L 398.7 17.1 
Q 398.7 15.3 396.9 15.3 
L 314.87625 15.3 
Q 313.07625 15.3 313.07625 17.1 
L 313.07625 42.620625 
Q 313.07625 44.420625 314.87625 44.420625 
z
" style="fill: #ffffff; opacity: 0.8; stroke: #cccccc; stroke-linejoin: miter"/>
    </g>
    <g id="line2d_51">
     <path d="M 316.67625 22.588594 
L 325.67625 22.588594 
L 334.67625 22.588594 
" style="fill: none; stroke: #1f77b4; stroke-width: 1.5; stroke-linecap: square"/>
    </g>
    <g id="text_17">
     <!-- Stochastic -->
     <g transform="translate(341.87625 25.738594) scale(0.09 -0.09)">
      <defs>
       <path id="DejaVuSans-53" d="M 3425 4513 
L 3425 3897 
Q 3066 4069 2747 4153 
Q 2428 4238 2131 4238 
Q 1616 4238 1336 4038 
Q 1056 3838 1056 3469 
Q 1056 3159 1242 3001 
Q 1428 2844 1947 2747 
L 2328 2669 
Q 3034 2534 3370 2195 
Q 3706 1856 3706 1288 
Q 3706 609 3251 259 
Q 2797 -91 1919 -91 
Q 1588 -91 1214 -16 
Q 841 59 441 206 
L 441 856 
Q 825 641 1194 531 
Q 1563 422 1919 422 
Q 2459 422 2753 634 
Q 3047 847 3047 1241 
Q 3047 1584 2836 1778 
Q 2625 1972 2144 2069 
L 1759 2144 
Q 1053 2284 737 2584 
Q 422 2884 422 3419 
Q 422 4038 858 4394 
Q 1294 4750 2059 4750 
Q 2388 4750 2728 4690 
Q 3069 4631 3425 4513 
z
" transform="scale(0.015625)"/>
       <path id="DejaVuSans-6f" d="M 1959 3097 
Q 1497 3097 1228 2736 
Q 959 2375 959 1747 
Q 959 1119 1226 758 
Q 1494 397 1959 397 
Q 2419 397 2687 759 
Q 2956 1122 2956 1747 
Q 2956 2369 2687 2733 
Q 2419 3097 1959 3097 
z
M 1959 3584 
Q 2709 3584 3137 3096 
Q 3566 2609 3566 1747 
Q 3566 888 3137 398 
Q 2709 -91 1959 -91 
Q 1206 -91 779 398 
Q 353 888 353 1747 
Q 353 2609 779 3096 
Q 1206 3584 1959 3584 
z
" transform="scale(0.015625)"/>
       <path id="DejaVuSans-63" d="M 3122 3366 
L 3122 2828 
Q 2878 2963 2633 3030 
Q 2388 3097 2138 3097 
Q 1578 3097 1268 2742 
Q 959 2388 959 1747 
Q 959 1106 1268 751 
Q 1578 397 2138 397 
Q 2388 397 2633 464 
Q 2878 531 3122 666 
L 3122 134 
Q 2881 22 2623 -34 
Q 2366 -91 2075 -91 
Q 1284 -91 818 406 
Q 353 903 353 1747 
Q 353 2603 823 3093 
Q 1294 3584 2113 3584 
Q 2378 3584 2631 3529 
Q 2884 3475 3122 3366 
z
" transform="scale(0.015625)"/>
       <path id="DejaVuSans-68" d="M 3513 2113 
L 3513 0 
L 2938 0 
L 2938 2094 
Q 2938 2591 2744 2837 
Q 2550 3084 2163 3084 
Q 1697 3084 1428 2787 
Q 1159 2491 1159 1978 
L 1159 0 
L 581 0 
L 581 4863 
L 1159 4863 
L 1159 2956 
Q 1366 3272 1645 3428 
Q 1925 3584 2291 3584 
Q 2894 3584 3203 3211 
Q 3513 2838 3513 2113 
z
" transform="scale(0.015625)"/>
       <path id="DejaVuSans-61" d="M 2194 1759 
Q 1497 1759 1228 1600 
Q 959 1441 959 1056 
Q 959 750 1161 570 
Q 1363 391 1709 391 
Q 2188 391 2477 730 
Q 2766 1069 2766 1631 
L 2766 1759 
L 2194 1759 
z
M 3341 1997 
L 3341 0 
L 2766 0 
L 2766 531 
Q 2569 213 2275 61 
Q 1981 -91 1556 -91 
Q 1019 -91 701 211 
Q 384 513 384 1019 
Q 384 1609 779 1909 
Q 1175 2209 1959 2209 
L 2766 2209 
L 2766 2266 
Q 2766 2663 2505 2880 
Q 2244 3097 1772 3097 
Q 1472 3097 1187 3025 
Q 903 2953 641 2809 
L 641 3341 
Q 956 3463 1253 3523 
Q 1550 3584 1831 3584 
Q 2591 3584 2966 3190 
Q 3341 2797 3341 1997 
z
" transform="scale(0.015625)"/>
       <path id="DejaVuSans-73" d="M 2834 3397 
L 2834 2853 
Q 2591 2978 2328 3040 
Q 2066 3103 1784 3103 
Q 1356 3103 1142 2972 
Q 928 2841 928 2578 
Q 928 2378 1081 2264 
Q 1234 2150 1697 2047 
L 1894 2003 
Q 2506 1872 2764 1633 
Q 3022 1394 3022 966 
Q 3022 478 2636 193 
Q 2250 -91 1575 -91 
Q 1294 -91 989 -36 
Q 684 19 347 128 
L 347 722 
Q 666 556 975 473 
Q 1284 391 1588 391 
Q 1994 391 2212 530 
Q 2431 669 2431 922 
Q 2431 1156 2273 1281 
Q 2116 1406 1581 1522 
L 1381 1569 
Q 847 1681 609 1914 
Q 372 2147 372 2553 
Q 372 3047 722 3315 
Q 1072 3584 1716 3584 
Q 2034 3584 2315 3537 
Q 2597 3491 2834 3397 
z
" transform="scale(0.015625)"/>
      </defs>
      <use xlink:href="#DejaVuSans-53"/>
      <use xlink:href="#DejaVuSans-74" transform="translate(63.476562 0)"/>
      <use xlink:href="#DejaVuSans-6f" transform="translate(102.685547 0)"/>
      <use xlink:href="#DejaVuSans-63" transform="translate(163.867188 0)"/>
      <use xlink:href="#DejaVuSans-68" transform="translate(218.847656 0)"/>
      <use xlink:href="#DejaVuSans-61" transform="translate(282.226562 0)"/>
      <use xlink:href="#DejaVuSans-73" transform="translate(343.505859 0)"/>
      <use xlink:href="#DejaVuSans-74" transform="translate(395.605469 0)"/>
      <use xlink:href="#DejaVuSans-69" transform="translate(434.814453 0)"/>
      <use xlink:href="#DejaVuSans-63" transform="translate(462.597656 0)"/>
     </g>
    </g>
    <g id="line2d_52">
     <path d="M 316.67625 35.798906 
L 325.67625 35.798906 
L 334.67625 35.798906 
" style="fill: none; stroke: #ff7f0e; stroke-width: 1.5; stroke-linecap: square"/>
    </g>
    <g id="text_18">
     <!-- Exponential -->
     <g transform="translate(341.87625 38.948906) scale(0.09 -0.09)">
      <defs>
       <path id="DejaVuSans-45" d="M 628 4666 
L 3578 4666 
L 3578 4134 
L 1259 4134 
L 1259 2753 
L 3481 2753 
L 3481 2222 
L 1259 2222 
L 1259 531 
L 3634 531 
L 3634 0 
L 628 0 
L 628 4666 
z
" transform="scale(0.015625)"/>
       <path id="DejaVuSans-78" d="M 3513 3500 
L 2247 1797 
L 3578 0 
L 2900 0 
L 1881 1375 
L 863 0 
L 184 0 
L 1544 1831 
L 300 3500 
L 978 3500 
L 1906 2253 
L 2834 3500 
L 3513 3500 
z
" transform="scale(0.015625)"/>
       <path id="DejaVuSans-70" d="M 1159 525 
L 1159 -1331 
L 581 -1331 
L 581 3500 
L 1159 3500 
L 1159 2969 
Q 1341 3281 1617 3432 
Q 1894 3584 2278 3584 
Q 2916 3584 3314 3078 
Q 3713 2572 3713 1747 
Q 3713 922 3314 415 
Q 2916 -91 2278 -91 
Q 1894 -91 1617 61 
Q 1341 213 1159 525 
z
M 3116 1747 
Q 3116 2381 2855 2742 
Q 2594 3103 2138 3103 
Q 1681 3103 1420 2742 
Q 1159 2381 1159 1747 
Q 1159 1113 1420 752 
Q 1681 391 2138 391 
Q 2594 391 2855 752 
Q 3116 1113 3116 1747 
z
" transform="scale(0.015625)"/>
       <path id="DejaVuSans-6e" d="M 3513 2113 
L 3513 0 
L 2938 0 
L 2938 2094 
Q 2938 2591 2744 2837 
Q 2550 3084 2163 3084 
Q 1697 3084 1428 2787 
Q 1159 2491 1159 1978 
L 1159 0 
L 581 0 
L 581 3500 
L 1159 3500 
L 1159 2956 
Q 1366 3272 1645 3428 
Q 1925 3584 2291 3584 
Q 2894 3584 3203 3211 
Q 3513 2838 3513 2113 
z
" transform="scale(0.015625)"/>
      </defs>
      <use xlink:href="#DejaVuSans-45"/>
      <use xlink:href="#DejaVuSans-78" transform="translate(63.183594 0)"/>
      <use xlink:href="#DejaVuSans-70" transform="translate(122.363281 0)"/>
      <use xlink:href="#DejaVuSans-6f" transform="translate(185.839844 0)"/>
      <use xlink:href="#DejaVuSans-6e" transform="translate(247.021484 0)"/>
      <use xlink:href="#DejaVuSans-65" transform="translate(310.400391 0)"/>
      <use xlink:href="#DejaVuSans-6e" transform="translate(371.923828 0)"/>
      <use xlink:href="#DejaVuSans-74" transform="translate(435.302734 0)"/>
      <use xlink:href="#DejaVuSans-69" transform="translate(474.511719 0)"/>
      <use xlink:href="#DejaVuSans-61" transform="translate(502.294922 0)"/>
      <use xlink:href="#DejaVuSans-6c" transform="translate(563.574219 0)"/>
     </g>
    </g>
   </g>
  </g>
 </g>
 <defs>
  <clipPath id="p2f631786b2">
   <rect x="58.11" y="10.8" width="345.09" height="129.011562"/>
  </clipPath>
 </defs>
</svg>
